<svg width="83" height="83" viewBox="0 0 83 83" fill="none" xmlns="http://www.w3.org/2000/svg">
<path fill-rule="evenodd" clip-rule="evenodd" d="M26.5586 2.68605C30.6591 1.0834 34.3186 0.324254 39.4703 0.0192974C40.3851 -0.0390987 44.4078 0.0452511 45.4394 0.136089C50.9999 0.642188 55.3405 1.87499 60.2002 4.33411C71.9959 10.284 80.0674 21.1067 82.4874 34.2069C82.8961 36.426 83 37.9248 83 41.5389C83 45.1594 82.9221 46.3144 82.5134 48.5789C81.4234 54.5872 79.2238 59.992 75.9213 64.8064C74.3901 67.0384 72.9432 68.7514 70.6852 70.9965C67.837 73.8319 65.5465 75.5967 62.2636 77.4588C56.8978 80.5149 51.3439 82.2473 44.862 82.8833C43.2854 83.0389 39.4443 83.0389 37.8807 82.8833C33.793 82.4809 29.9845 81.5727 26.364 80.1451C18.364 76.9852 11.5124 71.4052 6.75648 64.164C3.42151 59.09 1.2739 53.4323 0.417448 47.4628C-1.32789 35.323 2.46125 22.8133 10.63 13.7164C14.9836 8.85656 20.4208 5.09976 26.5586 2.68605ZM41.7411 4.26274C41.6893 2.29026 41.5726 1.05745 41.4233 0.856307C41.3454 0.752491 40.5992 0.681119 40.0218 0.733026L39.9928 0.735347C39.8 0.750781 39.2667 0.793479 38.7567 0.830353C36.3365 0.999053 33.1247 1.47271 32.5279 1.74522C32.3526 1.82309 32.3526 1.82957 32.3852 2.3162C32.424 2.94558 32.8262 4.65853 33.1637 5.6902L33.4362 6.50126L33.6633 6.49477C33.7865 6.49477 34.4744 6.38446 35.1881 6.2547C35.9017 6.12493 36.5831 6.00165 36.6998 5.98219L36.9074 5.94325V5.11273C36.9074 4.41198 36.9269 4.25625 37.0241 4.14594C37.1864 3.95778 37.4525 3.91886 37.6146 4.05511C37.7573 4.17191 37.8807 4.83372 37.9779 5.9692C38.0042 6.30577 38.0128 6.41561 37.962 6.47128C37.9374 6.49825 37.8989 6.51252 37.8417 6.53369C37.5497 6.65049 32.8392 7.44857 32.729 7.40315C32.4889 7.31232 32.2683 6.62454 31.5871 3.93832C31.1912 2.38109 31.055 2.18644 30.3608 2.2708C29.381 2.38757 23.7297 4.67801 22.7306 5.36578C22.4516 5.56043 22.4321 5.59287 22.4646 5.77454C22.536 6.13141 24.1061 8.97984 24.5538 9.56381L24.7096 9.77143L25.3454 9.50541C25.6892 9.36265 26.3899 9.04472 26.9024 8.79816C27.7654 8.3894 27.8304 8.34397 27.7914 8.20772C27.7654 8.12337 27.6487 7.79245 27.5319 7.47452C27.2957 6.8274 27.2349 6.66857 27.2894 6.58499C27.3098 6.55376 27.3463 6.53303 27.3957 6.50126C27.4864 6.44286 27.6747 6.37798 27.8109 6.35852C28.1417 6.31309 28.2521 6.45583 28.596 7.33826C28.9593 8.25963 29.0502 8.62298 28.9333 8.6619C28.8879 8.67488 28.4793 8.86953 28.025 9.09663C27.5773 9.31725 26.5068 9.82983 25.6569 10.2321C24.1579 10.9523 24.1061 10.9718 24.0152 10.8485C23.9647 10.779 23.366 9.77941 22.6632 8.60591L22.6073 8.51268C21.6145 6.83865 21.2642 6.30012 21.1605 6.28713C20.9852 6.26118 20.5051 6.5272 19.3567 7.27986C17.7541 8.33748 15.4832 10.0894 13.9909 11.4325C13.6989 11.6985 13.6794 11.7309 13.7573 11.8477C13.8092 11.9191 14.3997 12.5679 15.0744 13.2882C15.7557 14.0084 16.4694 14.7675 16.6641 14.9817L17.0209 15.371L18.4029 14.1576C19.2594 13.405 19.7589 12.9183 19.7329 12.8729C19.707 12.8275 19.5189 12.5679 19.3113 12.289C18.7792 11.5687 18.7403 11.3222 19.1231 11.1275C19.3177 11.0302 19.3632 11.0302 19.5189 11.108C19.798 11.2508 21.0436 12.847 20.9722 12.9638C20.9529 12.9962 20.583 13.3206 20.1483 13.684C18.6689 14.9233 17.9293 15.5656 17.4361 16.0393L16.943 16.5194L16.6251 16.2534C16.4499 16.1106 15.5221 15.2347 14.5618 14.3004L12.823 12.6069L11.9017 13.5477C10.5781 14.8908 8.96897 16.8828 7.83352 18.5698C7.17173 19.556 7.00952 19.8674 7.10034 20.0101C7.22362 20.2114 9.8384 21.9113 10.604 22.2876C10.8198 22.3935 10.9002 22.433 10.9654 22.4156C11.0041 22.4053 11.0375 22.3749 11.0906 22.3265C11.2463 22.1903 12.012 21.1587 12.6608 20.2114L13.089 19.582L12.5051 19.0499C11.8822 18.4789 11.7719 18.2908 11.9665 18.0766C12.1871 17.8301 12.2974 17.8106 12.5635 17.9469C13.0047 18.174 14.0622 19.0499 14.1077 19.2316C14.1466 19.3679 13.9779 19.6468 13.1215 20.9251C11.8238 22.8521 11.2269 23.6632 11.0841 23.6632C10.9414 23.6632 10.3185 23.3324 8.29418 22.1709C7.21713 21.5544 6.52938 21.1976 6.41261 21.1976C6.16605 21.1976 5.9649 21.5026 5.17983 23.1118C4.47261 24.5652 4.05087 25.506 3.55776 26.7323C3.18144 27.686 2.44178 29.7103 2.46774 29.7234C2.48071 29.7299 3.41503 30.0088 4.55047 30.3399C5.83514 30.7162 6.7435 30.9497 6.95112 30.9562L7.28202 30.9627L7.4053 30.6384C7.41095 30.6225 7.41818 30.6023 7.42685 30.5781C7.51758 30.3243 7.76532 29.6314 8.00222 28.9383L8.47586 27.5627L7.98277 27.3746C7.89892 27.3434 7.80805 27.3093 7.71736 27.2752C7.50628 27.1959 7.29621 27.117 7.17822 27.0762C6.81487 26.9399 6.78893 26.823 7.016 26.4208C7.14577 26.2002 7.19768 26.1612 7.36638 26.1677C7.80109 26.1872 9.3972 27.0957 9.3972 27.3226C9.3972 27.3681 9.11821 28.1855 8.78081 29.1524C8.44343 30.1127 8.06062 31.1963 7.93086 31.5532L7.70376 32.215L7.15874 32.0916C6.86029 32.0267 5.97789 31.8126 5.19929 31.6115C3.57073 31.1898 2.66239 30.9952 2.35095 30.9952C2.14333 30.9952 2.13034 31.0145 2.03303 31.3325C1.50099 33.2012 0.618584 39.9362 0.884602 40.105C1.02086 40.1894 2.08494 40.2735 3.87569 40.3386C4.85542 40.3709 5.66645 40.3904 5.67943 40.3774C5.6924 40.3644 5.76377 39.7156 5.83514 38.937C5.9649 37.5161 5.97141 36.8217 5.85461 36.705C5.82216 36.6725 5.54318 36.6141 5.23823 36.5881C4.64778 36.5232 4.27797 36.3805 4.26498 36.1989C4.23255 35.7577 4.40125 35.6019 4.90733 35.6019C5.23823 35.6019 6.87327 35.7835 6.91869 35.8291C6.92518 35.8356 6.87975 36.2768 6.80838 36.8087C6.73702 37.3409 6.62023 38.4309 6.54886 39.2355C6.53264 39.4031 6.51642 39.571 6.50073 39.7334C6.44108 40.3506 6.38907 40.8889 6.37367 41.0328L6.34122 41.3766H3.51234H0.689954L0.728883 41.8113C0.748348 42.058 0.800255 42.7327 0.832696 43.3231C0.96246 45.3605 1.39718 48.7151 1.7151 50.1879C1.78162 50.4873 1.80551 50.5948 1.87043 50.6335C1.90682 50.6551 1.95611 50.6551 2.03303 50.6551C2.40286 50.6551 5.85461 49.9219 6.30879 49.7467L6.49695 49.6753L6.45801 49.1757C6.41909 48.7345 5.97789 46.1133 5.93247 46.0612C5.9195 46.0549 5.64049 46.0873 5.30311 46.1456C4.38826 46.2949 4.21957 46.2818 4.13521 46.0612C4.05736 45.8666 4.10278 45.3475 4.20658 45.2438C4.24552 45.2048 4.66077 45.1529 5.13441 45.1269C5.60157 45.1076 6.09466 45.062 6.23093 45.0427C6.42558 45.0037 6.47749 45.0167 6.53588 45.1334C6.58129 45.2113 6.7435 45.9899 6.9057 46.8788C7.21065 48.5594 7.50263 50.0972 7.55454 50.2788C7.59345 50.4085 7.15874 50.5578 5.11495 51.1094C2.61048 51.7841 2.2601 51.9268 2.2601 52.2383C2.2601 52.952 4.98518 59.8102 5.58209 60.6083C5.67294 60.7187 5.71186 60.7057 6.4061 60.3554C8.14496 59.4859 9.78649 58.5386 9.78649 58.4024C9.78649 58.2141 9.31286 57.0398 8.87165 56.1183C8.52777 55.4176 8.398 55.197 8.30069 55.197C8.23581 55.197 7.89841 55.3009 7.55454 55.4241C7.21065 55.5474 6.86678 55.6513 6.79541 55.6513C6.65266 55.6513 6.41261 55.3009 6.41261 55.0933C6.41261 54.8206 6.75648 54.613 7.69727 54.3276C8.68349 54.0226 8.79378 54.0486 9.00791 54.5935C9.09225 54.8013 9.52047 55.7291 9.96816 56.6569L9.98025 56.6823C10.9804 58.7789 10.9929 58.8051 10.8895 58.928C10.7792 59.0642 9.74108 59.7131 8.03466 60.7057C7.23013 61.1793 6.50343 61.6205 6.41261 61.6854L6.25039 61.8088L6.44504 62.1852C7.12631 63.5087 10.312 67.7911 11.3956 68.8486L11.7265 69.1667L12.0769 68.959C12.8944 68.4595 15.1717 66.4674 15.2691 66.1561C15.321 66.0003 15.2301 65.8381 14.7954 65.2866C14.4905 64.9103 13.4134 63.6321 13.1215 63.3141C13.0566 63.2427 12.9528 63.2946 12.5245 63.6256C12.2326 63.8397 11.9017 64.0797 11.7784 64.151L11.5513 64.2875L11.3502 64.0278C11.0906 63.7035 11.0971 63.5152 11.3631 63.2622C11.6162 63.0221 13.0047 62.0099 13.076 62.0099C13.1085 62.0164 13.3096 62.2566 13.5302 62.5485C13.8936 63.0416 14.9771 64.3068 16.1645 65.6435L16.6576 66.1949L15.1458 67.7197C13.6016 69.2834 12.836 70.127 12.836 70.2697C12.836 70.3995 14.1531 71.6453 15.2691 72.5796C16.5278 73.6241 17.9357 74.6949 19.1685 75.5318L20.0834 76.1483L20.849 74.9155C21.8223 73.3387 22.5683 72.0605 22.5683 71.9696C22.5683 71.9308 21.913 71.4377 21.1084 70.873L19.6486 69.848L19.4735 70.0686C19.0777 70.5422 18.6365 70.9834 18.4937 71.0353C18.2602 71.1262 17.8968 70.9446 17.8968 70.7498C17.8968 70.4578 19.0842 68.92 19.3632 68.8486C19.3867 68.843 19.4054 68.8367 19.4245 68.8333C19.5586 68.8092 19.7177 68.9242 21.7444 70.3606C23.0679 71.3078 23.6195 71.7297 23.6453 71.8399C23.6974 72.054 23.5091 72.4434 22.4516 74.286C21.2577 76.3689 21.154 76.57 21.2707 76.7063C21.5496 77.0436 24.3202 78.4387 26.2927 79.2302C27.8432 79.8596 29.4654 80.437 29.673 80.437C29.8157 80.437 29.8483 80.3787 30.0559 79.7038C30.3543 78.7307 30.6268 77.7963 30.8993 76.7516L31.1264 75.8952L30.9836 75.7978C30.8019 75.6811 29.2448 75.175 28.3623 74.9478L27.6747 74.7663L27.5578 74.9155C27.4929 74.9934 27.3632 75.3047 27.2723 75.6032C27.1814 75.9082 27.0582 76.1741 26.9998 76.2132C26.7727 76.3364 26.2666 75.9991 26.2666 75.7264C26.2666 75.5318 26.5977 74.7014 26.8959 74.1239C27.0517 73.8254 27.1621 73.6892 27.2465 73.6892C27.3113 73.6892 28.1678 73.9812 29.1474 74.338C30.1272 74.6884 31.2043 75.0583 31.5351 75.1554C31.8661 75.2463 32.1774 75.3567 32.2229 75.3891C32.3461 75.493 32.3201 75.668 32.0737 76.5117C31.7687 77.5302 31.1524 80.0218 31.0939 80.437L31.0485 80.7616L31.3016 80.8653C32.437 81.3455 38.6009 82.2798 39.9569 82.176L40.2489 82.1566L40.3268 80.9238C40.4305 79.1784 40.4305 77.4848 40.3268 77.4005C40.2812 77.3616 39.9957 77.2968 39.6975 77.2577C38.9382 77.1605 36.836 77.0178 36.81 77.0631C36.7972 77.0891 36.7386 77.3874 36.6803 77.738C36.5117 78.802 36.3495 79.0031 35.8304 78.7825L35.5902 78.6853L35.6293 78.017C35.6746 77.2967 35.8239 76.4987 35.9343 76.3883C36.1289 76.1937 41.1313 76.518 41.3064 76.7323C41.3778 76.8165 41.3908 77.3616 41.3713 79.5222L41.3519 82.2085L42.7793 82.1694C45.3292 82.1046 49.6243 81.5466 50.4938 81.1573C50.6495 81.0924 50.7923 81.008 50.8183 80.9692C50.8831 80.8653 50.0656 77.5044 49.8126 76.823L49.6764 76.4596L49.3714 76.5052C48.6705 76.6024 46.1857 77.0436 46.1531 77.0761C46.1338 77.0955 46.1596 77.4265 46.2115 77.8159C46.3349 78.7046 46.2959 78.8085 45.8093 78.9383C45.5303 79.0161 45.4525 79.0161 45.4071 78.9513C45.3811 78.9057 45.3097 78.4387 45.2514 77.9196C45.193 77.3939 45.1279 76.8425 45.1086 76.6998L45.0696 76.4273L45.485 76.3559C48.489 75.8173 50.189 75.5902 50.3901 75.6941C50.5912 75.8043 50.8378 76.5505 51.6422 79.4832C51.7526 79.9051 51.9148 80.3464 51.9927 80.4566C52.1224 80.6512 52.1548 80.6642 52.4858 80.6577C53.4331 80.6318 59.6098 78.1985 60.3885 77.5432C60.5766 77.3874 60.5961 77.3421 60.5571 77.1345C60.5312 77.0048 60.3885 76.6284 60.2263 76.2976C59.7267 75.2268 58.6301 73.2284 58.5327 73.1894C58.4809 73.1701 58.2798 73.2024 58.085 73.2608C57.5789 73.423 55.3989 74.5261 55.3535 74.6493C55.3275 74.7014 55.4249 75.0776 55.5676 75.48C55.8142 76.1937 55.8142 76.2132 55.6973 76.3429C55.5481 76.5052 55.1847 76.6349 55.0162 76.5765C54.88 76.5375 54.6268 75.9796 54.296 74.9997C54.0235 74.1953 54.0298 74.1239 54.3867 74.0265C54.5424 73.9875 55.4832 73.5853 56.4761 73.1311C58.708 72.1189 59.0714 71.9761 59.1427 72.0865C59.1686 72.1254 59.7655 73.1571 60.4662 74.3704C61.4551 76.0845 61.7176 76.581 62.0079 76.5978C62.1462 76.6058 62.2907 76.5051 62.5231 76.3752C64.0025 75.5578 67.1622 73.2415 68.6739 71.8659C69.1365 71.4476 69.3073 71.296 69.2992 71.1547C69.2943 71.0681 69.2221 70.9853 69.1086 70.8472C68.6156 70.2437 66.2602 67.6484 66.163 67.603C66.1175 67.5835 64.3398 69.063 63.7884 69.5819C63.6001 69.7571 63.4443 69.9452 63.4443 70.0038C63.4443 70.114 64.1192 71.0613 64.3073 71.2171C64.3658 71.2624 64.4177 71.3403 64.4177 71.3856C64.4177 71.4765 63.7298 71.9373 63.6001 71.9373C63.5547 71.9373 63.425 71.801 63.3016 71.6258C62.9189 71.0937 62.2051 69.9194 62.2246 69.8673C62.2376 69.835 62.5491 69.5691 62.9189 69.2771C63.7298 68.6345 64.8005 67.7132 65.6504 66.9412L66.2667 66.3767L67.9472 67.9922C69.6147 69.5949 70.2896 70.1854 70.4711 70.1854C70.6529 70.1854 71.8532 68.8033 73.4493 66.7401C75.3049 64.3458 76.155 63.0935 76.0511 62.9247C75.8823 62.6457 73.0664 60.9198 72.1905 60.55L71.944 60.4528L71.4833 61.0756C70.6787 62.1592 70.0624 63.113 70.0624 63.2688C70.0624 63.4438 70.3219 63.7163 70.8345 64.0668C71.3471 64.4237 71.3731 64.4886 71.1004 64.7675C70.8215 65.0595 70.7048 65.0918 70.4388 64.9556C69.9132 64.6897 68.8945 63.7423 68.8945 63.5282C68.8945 63.4308 71.5677 59.4599 71.7818 59.2263C71.8857 59.1161 71.9829 59.1614 74.3706 60.5176C76.3495 61.6335 76.5702 61.7505 76.7324 61.7505C77.1865 61.7505 80.5149 54.3145 80.4307 53.4841C80.4112 53.3089 80.3594 53.257 79.9895 53.0752C79.1915 52.686 76.2328 51.875 76.0446 51.9917C75.9862 52.0307 75.837 52.2643 75.7137 52.5108C75.4476 53.0494 74.656 55.1905 74.7016 55.2619C74.7146 55.2879 75.0584 55.4502 75.4541 55.6187C76.2847 55.9821 76.3884 56.0925 76.1873 56.4363C75.9862 56.7802 75.9018 56.7997 75.3697 56.6309C74.6367 56.3975 73.9814 56.073 73.858 55.8849C73.7024 55.6513 73.7413 55.5085 74.3771 53.7436C74.6756 52.9197 74.9936 51.9917 75.0908 51.6804C75.2855 51.025 75.4476 50.7849 75.7007 50.7849C75.7981 50.7849 76.8103 51.0185 77.9587 51.2975C79.1006 51.583 80.2295 51.8296 80.4631 51.8554C80.8459 51.901 80.8913 51.888 80.9562 51.7712C81.3195 51.0964 82.2603 45.0102 82.2603 43.3557C82.2603 42.9209 82.2473 42.8626 82.1176 42.7912C82.0074 42.7327 81.3778 42.7003 79.691 42.6873L77.4136 42.6613L77.3422 43.6607C77.1995 45.5877 77.1799 46.0938 77.2578 46.1391C77.2969 46.1651 77.6537 46.243 78.0559 46.3079C78.4518 46.3792 78.8216 46.4766 78.8735 46.5285C78.9578 46.6064 78.9513 46.6712 78.8539 46.9892C78.7891 47.1903 78.6982 47.3719 78.6528 47.3914C78.575 47.4175 76.8166 47.2487 76.4598 47.1773L76.2717 47.1385L76.317 46.509C76.3626 45.8406 76.6545 42.7133 76.7324 42.0385L76.7778 41.6298L79.5548 41.6363H82.3252V40.7668C82.3252 39.0602 81.6894 33.863 81.3325 32.6107C81.2611 32.3577 81.2286 32.3252 81.034 32.3059C80.567 32.2604 76.9335 33.078 76.7389 33.2725C76.661 33.3504 76.6415 33.4608 76.661 33.7268C76.6869 34.0383 76.9984 36.0106 77.1151 36.5753L77.1541 36.7894L78.0431 36.7439C78.6698 36.7107 78.8929 36.6987 78.9723 36.7998C79.017 36.8566 79.0162 36.9493 79.0162 37.0942C79.0162 37.6717 78.7047 37.8274 77.5693 37.8339C77.0643 37.8371 76.8111 37.8449 76.661 37.7243C76.5027 37.597 76.4593 37.3267 76.3561 36.7569C76.3008 36.444 76.1837 35.844 76.0646 35.2345C76.0158 34.9845 75.9667 34.7329 75.9213 34.4989C75.6298 33.0633 75.5398 32.7382 75.66 32.6099C75.7136 32.5527 75.8091 32.5346 75.9472 32.4745C76.4274 32.2604 76.8038 32.1436 78.7372 31.5855C80.7486 31.0017 80.7681 30.9952 80.7681 30.7356C80.7681 30.4306 80.554 29.6455 80.1451 28.4647C79.3407 26.1223 77.7186 22.3655 77.511 22.3655C77.245 22.3655 73.8061 24.0135 73.4039 24.3381L73.2157 24.4873L73.4039 24.9283C73.6569 25.5318 74.4484 27.0762 74.6625 27.394C74.8701 27.699 74.9092 27.699 75.6229 27.4265C76.3949 27.128 76.4598 27.1215 76.5832 27.3616C76.6415 27.4718 76.6804 27.6731 76.6676 27.8029C76.648 28.03 76.622 28.0558 76.1615 28.2829C75.8953 28.4192 75.4348 28.601 75.1363 28.6982C74.3966 28.9383 74.3122 28.906 74.0397 28.2376C73.9165 27.9521 73.4104 26.8816 72.9044 25.8498C72.3332 24.6949 72.0089 23.9617 72.0477 23.9292C72.0803 23.8968 73.1573 23.2803 74.4419 22.5601C75.7268 21.8399 76.8038 21.2301 76.8361 21.1976C76.9075 21.1262 76.7064 20.7954 75.7268 19.2965C74.5328 17.4732 73.1378 15.6305 71.9245 14.2874C71.5677 13.8981 71.2562 13.5672 71.2304 13.5542C71.1718 13.5347 68.5312 16.0458 68.2004 16.448C67.9725 16.7198 67.8446 16.8599 67.8398 17.0042C67.8339 17.1803 68.0114 17.3625 68.4145 17.7976C69.6731 19.1732 70.0169 19.5106 70.1533 19.5106C70.2247 19.5106 70.5425 19.3354 70.854 19.1213C71.1718 18.9072 71.4703 18.732 71.5158 18.732C71.613 18.732 71.8271 18.9591 71.9375 19.1732C72.0024 19.2965 72.0024 19.3549 71.918 19.4781C71.8208 19.6274 70.815 20.406 70.3674 20.672C70.1403 20.8082 70.1143 20.8147 69.9651 20.7175C69.8807 20.6591 69.5108 20.2437 69.1412 19.7897C68.5895 19.1018 67.5774 17.8755 66.7275 16.8698L66.5522 16.6622L68.09 15.0855C69.7121 13.4244 70.257 12.8145 70.257 12.6653C70.257 12.3798 67.4865 9.96609 65.2741 8.32451C64.5344 7.77299 63.1395 6.85811 63.0421 6.85811C62.9838 6.85811 62.0623 8.26611 61.1671 9.70655L60.4339 10.9004L60.5896 11.0042C60.674 11.0626 61.3228 11.5363 62.03 12.0618C62.7372 12.5939 63.3471 13.0222 63.373 13.0222C63.4055 13.0222 63.6519 12.7496 63.9246 12.4122C64.5669 11.6206 64.7161 11.5622 65.06 11.958C65.2871 12.2111 65.2806 12.3214 65.047 12.6653C64.8198 12.9897 63.8272 14.2225 63.7688 14.242C63.7428 14.2549 63.2562 13.9046 62.6918 13.4699C62.1209 13.0351 61.1606 12.3473 60.5441 11.9386C59.9278 11.5298 59.4087 11.1794 59.3957 11.147C59.3763 11.121 59.4605 10.8745 59.5774 10.602C59.7915 10.1218 59.9538 9.81686 61.3293 7.39666C61.8612 6.45583 61.9521 6.26118 61.8872 6.17684C61.4914 5.70317 54.2376 2.51085 53.5498 2.51085C53.381 2.51085 53.2773 2.7185 52.901 3.84098C52.3495 5.48906 51.9213 7.04627 52.0055 7.11766C52.1873 7.28635 55.1654 8.31803 55.3017 8.25963C55.36 8.24015 55.5481 7.92222 55.7234 7.55239C56.1255 6.7024 56.1516 6.67645 56.5279 6.85162C56.6837 6.9295 56.8457 7.0333 56.8848 7.07873C56.9692 7.18255 56.8848 7.42911 56.3657 8.59053L56.0349 9.31076L55.5741 9.18097C54.8086 8.97335 51.0064 7.70162 50.8896 7.61728C50.7664 7.51994 50.7664 7.50048 51.6033 4.34059C52.0769 2.54979 52.1613 2.16698 52.0834 2.11507C51.558 1.78416 47.4768 1.07691 45.0177 0.895237C43.2724 0.76547 42.8767 0.746002 42.8767 0.8044C42.8767 0.81962 42.861 1.06469 42.8376 1.43099C42.8211 1.68929 42.8007 2.00788 42.7793 2.34865C42.7275 3.1662 42.6819 4.22382 42.6819 4.69098V5.54746L42.896 5.57989C43.0908 5.61883 43.8175 5.68371 45.5043 5.81348C45.9002 5.84591 46.2375 5.8524 46.257 5.82646C46.2829 5.807 46.3479 5.50204 46.4063 5.15165C46.4646 4.80129 46.5425 4.45739 46.5813 4.38602C46.6592 4.23031 46.8928 4.13297 47.1848 4.13297C47.6 4.13297 47.626 4.30816 47.3924 5.56692C47.308 6.02111 47.1978 6.47529 47.146 6.57263C47.0421 6.78674 46.9707 6.79323 46.0169 6.68294C45.6926 6.63751 44.6219 6.55317 43.6357 6.48829L41.845 6.37149L41.8125 6.04707C41.7932 5.87188 41.7606 5.06731 41.7411 4.26274ZM34.5392 2.4396C35.6423 2.22547 36.9983 2.06976 39.6001 1.84266C39.7428 1.82968 39.9504 1.81671 40.0608 1.81022L40.2619 1.79724L40.3072 4.04873C40.3591 6.37808 40.4046 7.07234 40.5214 7.18914C40.6383 7.30593 41.7023 7.4357 43.7201 7.57195C45.8807 7.71471 46.6334 7.78608 47.5028 7.93531C47.8141 7.98722 48.0998 8.01317 48.1321 7.99371C48.236 7.92882 48.9627 4.44454 48.9885 3.8411L49.0081 3.51668L48.5863 3.37394C47.9699 3.17279 46.2635 2.92622 45.6535 2.95867C45.4201 2.96516 45.3551 3.10141 45.2384 3.79568C45.0761 4.74299 44.9917 4.84033 44.4533 4.65216C44.1353 4.53537 44.0769 4.34071 44.09 3.45829C44.116 2.13464 44.2715 1.8232 44.8555 1.89457C46.5295 2.10219 49.4816 2.56289 50.163 2.72508L50.481 2.79646L50.4419 3.08844C50.4096 3.32203 49.6699 6.7674 49.4363 7.79257C49.4037 7.92882 49.3909 8.07805 49.4102 8.12996C49.4493 8.24027 49.871 8.44141 50.4354 8.61011C51.9018 9.05133 53.4071 9.5704 54.7437 10.1025C55.5806 10.4334 56.3527 10.7059 56.4631 10.7124C56.6446 10.7188 56.6837 10.6799 57.047 10.0051C57.2546 9.60933 57.7023 8.72042 58.0397 8.02616L58.6497 6.76089L58.5004 6.63763C58.1501 6.35213 55.347 5.12581 55.2626 5.22314C55.2433 5.24909 55.1136 5.54756 54.9772 5.88497C54.8474 6.22236 54.6659 6.57273 54.5815 6.65709C54.4387 6.80632 54.4257 6.81281 54.0429 6.72846C53.7575 6.669 53.6042 6.63951 53.5457 6.54885C53.4764 6.44165 53.5395 6.24895 53.673 5.82009C54.004 4.73002 54.2311 4.20446 54.3997 4.08766C54.5815 3.97087 54.601 3.97736 56.3073 4.65865C57.7542 5.22963 59.8111 6.18343 60.1549 6.43648C60.2716 6.52084 60.2002 6.66358 59.0648 8.75285C58.3965 9.97918 57.7932 11.0757 57.7219 11.186L57.5985 11.4001L57.8969 11.5753C59.305 12.4188 61.8677 14.1707 63.3925 15.3451L64.0413 15.8447L64.2814 15.5722C64.344 15.5034 64.5363 15.2852 64.7988 14.9874C65.0806 14.6677 65.4432 14.2564 65.8127 13.8398C66.5264 13.0287 67.1168 12.3474 67.1233 12.3215C67.1297 12.2956 66.4745 11.7375 65.67 11.0822L64.2101 9.89482L63.9116 10.2387C63.373 10.8681 62.9448 11.2704 62.8215 11.2704C62.64 11.2704 62.2116 10.894 62.2116 10.7383C62.2116 10.4788 62.8604 9.48605 63.5547 8.68797L63.7363 8.48034L64.0932 8.75934C64.2879 8.91507 65.047 9.50551 65.7802 10.07C66.5134 10.6345 67.4477 11.3807 67.85 11.7181C68.2587 12.062 68.6221 12.3604 68.6609 12.3864C68.6934 12.4123 68.4468 12.7303 68.103 13.1001C67.9882 13.2236 67.8134 13.4107 67.6044 13.6344C67.1873 14.0808 66.6341 14.6729 66.15 15.1959L64.8198 16.6168L65.6051 17.4474C67.4088 19.342 68.1939 20.2374 68.9464 21.282C69.6212 22.2165 69.803 22.4306 69.9132 22.4306C70.2896 22.4306 73.6959 20.0168 73.6959 19.7443C73.6959 19.5691 71.7818 17.1619 71.5807 17.084C71.4445 17.0321 71.3147 17.11 70.7048 17.6031C70.4193 17.8302 70.1663 18.0184 70.1338 18.0184C70.1078 18.0184 69.9002 17.8302 69.6796 17.5966C69.3227 17.2268 69.2839 17.1554 69.3553 17.0711C69.5173 16.8764 70.9642 15.689 71.1655 15.5852C71.2757 15.5268 71.4249 15.5008 71.4963 15.5203C71.7948 15.6176 73.8645 18.3298 74.9157 20.0103L75.253 20.5489L75.1038 20.6396C75.0552 20.668 74.8248 20.8075 74.5151 20.995C74.3283 21.1081 74.1126 21.2386 73.8905 21.3728C73.3 21.7297 72.3074 22.3462 71.6781 22.7549L70.536 23.4881L71.6846 25.7655C72.3462 27.0762 73.0211 28.5166 73.2742 29.1591C73.5141 29.7754 73.7543 30.314 73.7996 30.3529C73.923 30.4503 74.5328 30.301 76.0315 29.7884C77.3942 29.3277 78.0949 29.0292 78.1468 28.8929C78.2442 28.6465 77.206 26.0705 76.8817 25.7461C76.6999 25.5644 76.648 25.5774 75.4023 26.103L75.1946 26.1939L75.0001 25.8433C74.7599 25.4281 74.7469 25.2724 74.948 25.0908C75.0908 24.9481 77.1281 23.8968 77.1671 23.9359C77.232 24.0007 77.9587 25.6813 78.3869 26.7453C78.9709 28.2246 79.3407 29.3537 79.3407 29.6652C79.3407 29.8793 79.3147 29.9051 79.0552 30.0221C78.8995 30.0869 78.004 30.3789 77.0697 30.6709C76.1354 30.9629 75.1168 31.3067 74.8053 31.4364C74.5654 31.5413 74.4149 31.58 74.3411 31.6771C74.2093 31.8503 74.3214 32.2091 74.6042 33.4608C74.987 35.1609 75.1428 36.0627 75.3699 37.873L75.545 39.268L76.0966 39.2485C77.4008 39.1967 79.5871 39.0409 79.8078 38.9761C80.1193 38.8852 80.249 38.6971 80.249 38.3337C80.249 37.8211 79.983 35.8032 79.8856 35.5696C79.7559 35.2516 79.5871 35.1997 78.9253 35.2906C78.6205 35.3295 78.309 35.3425 78.2181 35.3165C78.0431 35.2776 77.9262 35.057 77.8678 34.6613L77.829 34.3821L78.2702 34.2459C78.8021 34.0773 79.9117 33.8502 80.1646 33.8502C80.5344 33.8502 80.5475 33.8891 80.7616 35.375C80.9173 36.4391 81.2872 39.6637 81.2872 39.9364V40.1245L79.8143 40.1635C78.3869 40.2024 76.6545 40.3063 75.8888 40.3904L75.5192 40.436L75.4801 42.0905C75.4348 44.1668 75.2077 46.9958 75.0259 47.7873C75.0001 47.9042 75.0259 47.9496 75.1686 48.0014C75.7268 48.2155 78.5101 48.8904 79.2823 49.0006L79.5871 49.0462L79.6585 48.7282C79.7494 48.3453 79.9505 46.9762 80.0609 46.0289C80.1127 45.5358 80.1192 45.3087 80.0674 45.2568C80.0349 45.2245 79.691 45.179 79.3147 45.1594C78.9383 45.1401 78.5815 45.0881 78.5231 45.0492C78.3739 44.939 78.3804 44.1019 78.5361 43.9917C78.6854 43.8813 79.2758 43.8878 80.1192 44.0045C80.8734 44.1104 81.0879 44.1323 81.1358 44.2333C81.1583 44.2809 81.1439 44.346 81.1314 44.4457C81.1119 44.595 81.047 45.1401 80.9952 45.6592C80.8329 47.1645 80.4112 49.682 80.2425 50.1167C80.1646 50.3308 79.9375 50.3113 78.2702 49.9675C76.0446 49.5067 75.1751 49.3512 74.9352 49.3705C74.881 49.3747 74.8443 49.364 74.8116 49.3711C74.6915 49.3975 74.6242 49.6645 73.9359 51.7908C73.6439 52.7056 73.0016 54.4185 72.2814 56.2159L72.1451 56.5532L72.9692 56.9685C74.0202 57.5071 75.9343 58.3765 76.168 58.4219C76.33 58.4544 76.3561 58.4154 76.7647 57.6238C77.245 56.67 77.699 55.5799 77.7316 55.2944C77.7576 55.0738 77.6537 55.0089 76.7454 54.6586C76.1029 54.4185 76.0446 54.3082 76.3235 53.893C76.5767 53.5036 76.6999 53.4713 77.2903 53.6334C77.9717 53.8217 78.6594 54.0941 78.867 54.2629L79.0422 54.3991L78.893 54.8469C78.5557 55.8526 77.5045 58.344 76.9075 59.5638C76.7517 59.8753 76.622 60.0634 76.5572 60.0634C76.4988 60.0634 75.4348 59.551 74.1825 58.928C72.9367 58.2987 71.8208 57.773 71.7169 57.7535C71.5288 57.7212 71.5028 57.747 71.1655 58.2726C69.6082 60.7122 69.3162 61.1276 67.9668 62.8405C67.5125 63.4245 67.1427 63.9241 67.1557 63.9501C67.1687 63.9759 67.8175 64.5469 68.6026 65.2218C69.3876 65.8901 70.1727 66.5715 70.3414 66.7336C70.5167 66.8958 70.6787 66.9997 70.7113 66.9672C70.9384 66.7401 72.6189 64.5211 72.7161 64.32C72.8913 63.9759 72.8265 63.8527 72.3009 63.4829C71.7688 63.1195 71.5547 62.9249 71.5547 62.8145C71.5547 62.6783 71.9245 62.2956 72.1386 62.2047C72.3139 62.1333 72.3657 62.1463 72.7031 62.3344C73.2677 62.6524 73.8387 63.0677 74.1046 63.3661L74.3512 63.6386L74.2343 63.8332C73.8061 64.5664 71.0228 68.0898 70.7566 68.2388C70.5946 68.3297 70.562 68.3232 70.2961 68.187C70.1403 68.1026 69.2125 67.298 68.2327 66.3962L66.4615 64.7547L66.1305 65.053C65.9424 65.2153 65.4363 65.6825 64.9951 66.0912C64.009 66.9932 63.0487 67.7978 61.8547 68.7256C60.9139 69.4523 60.5247 69.7897 60.5247 69.8675C60.5247 69.9389 61.5044 71.4119 62.2506 72.4564C62.9566 73.44 63.0743 73.6271 63.1741 73.618C63.2073 73.615 63.2386 73.5903 63.2888 73.566C63.691 73.3842 66.1047 71.5674 66.163 71.4119C66.176 71.3728 65.9099 71.0678 65.5791 70.7305L64.9691 70.1205L65.391 69.6988C65.6179 69.4653 65.8385 69.2771 65.8776 69.2836C65.9554 69.2836 67.1233 70.6331 67.3179 70.9576C67.493 71.2301 67.506 71.3988 67.3698 71.5999C67.1752 71.8724 62.6463 75.188 62.5749 75.1103C62.5231 75.0452 60.2458 71.4507 59.9473 70.9511L59.6098 70.3867L57.2611 71.5739C55.97 72.2293 54.4582 72.943 53.8936 73.1636C53.3357 73.3842 52.8296 73.6048 52.7647 73.6569C52.648 73.7411 52.648 73.7606 52.7582 74.3057C52.9788 75.3893 53.8288 77.6926 54.0949 77.9326C54.1986 78.03 54.2376 78.03 54.562 77.9326C55.2303 77.7315 57.2481 76.9269 57.3648 76.8102C57.4817 76.7 57.4752 76.6739 57.2741 76.116C57.1572 75.798 57.0535 75.4151 57.0405 75.2659C57.008 75.0064 57.0145 74.9934 57.2741 74.8637C57.6698 74.6561 57.7607 74.6819 58.0202 75.0843C58.3382 75.5578 58.8896 76.6609 58.9416 76.9141C58.9529 76.9678 58.963 77.0093 58.956 77.0476C58.931 77.1848 58.6868 77.282 57.4948 77.764C55.2368 78.6918 53.7574 79.2109 53.1929 79.2823C53.0378 79.3018 53.0243 79.2566 52.4723 77.4077L52.4663 77.3876C51.7331 74.922 51.5059 74.1888 51.4541 74.1304C51.4281 74.1044 51.0972 74.1565 50.7274 74.2408C47.9568 74.8637 46.4907 75.1296 44.888 75.2854C44.2976 75.3437 43.811 75.3958 43.8045 75.4021C43.7526 75.4476 44.0186 79.6326 44.09 79.9116L44.1288 80.0674L45.2058 80.0285C46.0818 79.996 47.8206 79.8663 47.8466 79.8272C47.8531 79.8272 47.8078 79.4185 47.7492 78.9254C47.6802 78.3037 47.652 78.0497 47.7653 77.9325C47.8436 77.8515 47.9894 77.8359 48.236 77.8094L48.6317 77.764L48.7356 78.0235C48.8913 78.4063 49.1054 79.5548 49.1054 79.983V80.3594L48.6707 80.4633C47.639 80.6967 43.1945 81.2288 43.0973 81.1314C42.9739 81.0082 42.8702 79.7429 42.8312 77.7705L42.7923 75.5904L41.4882 75.5125C39.5482 75.3958 37.9066 75.2593 36.7712 75.1166C35.7202 74.9804 35.1102 74.9545 34.9805 75.0387C34.8766 75.1038 34.7338 75.6422 34.4418 77.1087C34.0655 79.0098 34.085 79.4185 34.5653 79.6001C34.8117 79.6975 37.5562 80.1062 37.6601 80.0674C37.7703 80.0285 37.8029 79.8921 37.8352 79.2693C37.8742 78.523 38.0948 78.2311 38.6139 78.2311C39.0421 78.2311 39.068 78.335 39.0096 79.7365L38.9643 80.8459L37.6276 80.8071C36.0315 80.7616 34.111 80.5151 33.1442 80.2231L32.8522 80.1387L32.8329 79.8014C32.8069 79.3795 32.8978 78.8864 33.4362 76.5442C33.7542 75.1491 33.8321 74.6884 33.7737 74.6495C33.7347 74.617 33.4492 74.5198 33.1442 74.4354C31.1459 73.8384 28.8036 73.0015 27.1944 72.3071L26.669 72.08L26.5393 72.2162C26.1888 72.5926 24.6252 75.5513 24.5408 75.9991C24.5085 76.1808 24.5278 76.2132 24.8198 76.4015C25.2352 76.6674 27.0324 77.5629 27.4606 77.7185C27.7849 77.8354 27.7914 77.8354 27.9018 77.7057C27.9602 77.6343 28.1159 77.3033 28.2456 76.9659C28.3754 76.6286 28.5246 76.3236 28.5764 76.278C28.6673 76.2002 29.1281 76.2392 29.42 76.3494C29.5628 76.408 29.5628 76.4143 29.4784 76.7841C29.3615 77.2902 28.9463 78.5231 28.784 78.8346C28.6803 79.0422 28.635 79.0747 28.5181 79.0422C28.1482 78.932 24.8588 77.5369 23.7104 77.0048L23.1329 76.7388L23.1718 76.4468C23.1913 76.2327 23.5286 75.4995 24.3592 73.8515C25.3714 71.8401 25.5076 71.5416 25.4232 71.4637C25.3714 71.4119 24.9172 71.1264 24.4176 70.8344C22.5035 69.6923 21.7509 69.1668 20.0574 67.7718C19.2853 67.136 19.0972 67.0125 19.0388 67.0839C16.729 69.6534 16.145 70.3801 16.145 70.6851C16.145 70.7565 16.6187 71.1847 17.4102 71.8336C18.1045 72.398 18.7273 72.9041 18.7987 72.956C18.922 73.0404 18.9609 73.0015 19.4021 72.398C19.973 71.613 20.0834 71.5416 20.4012 71.7102C20.5312 71.7817 20.6867 71.9049 20.7581 71.9893C20.8685 72.1321 20.8685 72.1644 20.7776 72.3785C20.7258 72.5082 20.4077 73.0339 20.0639 73.5465L19.4475 74.4743L19.1426 74.2471C18.9739 74.1174 18.4743 73.7541 18.0266 73.4362C17.5789 73.1182 16.982 72.664 16.6965 72.4241C15.866 71.7297 14.4516 70.432 14.471 70.3801C14.484 70.3541 15.1977 69.5951 16.0607 68.6866C16.9171 67.7783 17.7411 66.8958 17.8903 66.7205C18.0532 66.517 18.1139 66.4412 18.1092 66.3697C18.1065 66.3272 18.0807 66.2862 18.0396 66.221C17.9812 66.1238 17.4881 65.5528 16.9561 64.9558C15.6843 63.5412 15.0096 62.7238 14.0493 61.4455C13.6146 60.868 13.2318 60.3944 13.2058 60.3944C13.1669 60.3879 11.8628 61.2509 9.37127 62.9314C9.33234 62.9572 9.41019 63.126 9.55295 63.3531C9.92278 63.9176 11.2399 65.65 11.4345 65.8318L11.6032 65.9938L12.1418 65.6242C12.8619 65.1374 13.0112 65.0855 13.2188 65.2413C13.4848 65.4424 13.6341 65.676 13.5822 65.8318C13.5238 66.0264 12.7452 66.7919 12.1677 67.2331L11.7006 67.59L11.5189 67.3824C10.7662 66.5129 8.92358 63.9825 8.37856 63.0742C8.09958 62.6069 8.05416 62.4902 8.11904 62.4123C8.26826 62.2307 8.84573 61.8413 10.2083 61.0042C10.9609 60.5437 11.8109 60.0116 12.1093 59.8235L12.6478 59.4731L12.4597 59.1356C11.4865 57.4162 10.7014 55.833 9.98117 54.159C9.76056 53.6399 9.48806 53.0624 9.38424 52.8743L9.1896 52.5305L8.9171 52.5758C8.23583 52.686 5.32909 53.7243 5.0436 53.9579L4.90086 54.0681L5.2123 54.9766C5.53023 55.9044 5.95195 56.9231 6.12065 57.1891C6.23744 57.3708 6.41911 57.3448 7.10038 57.0658C7.75569 56.7999 7.89194 56.7999 8.0801 57.0724C8.28774 57.3837 8.27475 57.598 8.0217 57.8314C7.73623 58.0976 7.45722 58.2596 6.69161 58.6037C6.20499 58.8243 6.04279 58.8696 5.97143 58.8178C5.78327 58.662 5.23176 57.3967 4.52455 55.5411C3.95358 54.0293 3.77839 53.4128 3.87571 53.2117C3.9925 52.9587 4.26502 52.8483 7.1977 51.927C8.26177 51.596 8.55375 51.4339 8.66406 51.1094C8.76137 50.8304 8.72894 50.5061 8.48238 49.3251C8.11904 47.5927 7.84654 46.0031 7.71677 44.8546C7.6389 44.2123 7.56753 43.6802 7.55456 43.6607C7.48319 43.5958 2.97385 43.9527 2.8895 44.0305C2.81165 44.1084 3.14255 47.2164 3.27231 47.6316C3.30474 47.7355 3.35665 47.7485 3.71351 47.7094C5.00466 47.5732 5.03063 47.5732 5.13443 47.742C5.19282 47.8264 5.25771 48.047 5.28367 48.2286L5.32259 48.5594L4.81002 48.7021C4.53103 48.7737 3.99898 48.8839 3.62917 48.9488C2.71432 49.098 2.65592 49.0655 2.5067 48.3195C2.35097 47.5602 2.09793 45.6072 1.95519 44.1798C1.86435 43.2194 1.85787 42.9795 1.92924 42.9405C1.97465 42.9144 2.46776 42.8691 3.02575 42.8431C4.20014 42.7912 6.60727 42.629 7.11336 42.5706C7.40534 42.5383 7.47022 42.4992 7.52211 42.3695C7.55456 42.2786 7.61295 41.3703 7.64538 40.3451C7.67784 39.2941 7.78165 37.7107 7.88545 36.6857C8.02821 35.2193 8.04767 34.8689 7.9763 34.8299C7.82706 34.7327 5.38747 34.2136 3.86273 33.9539C3.56543 33.8958 3.56427 33.902 3.33984 35.1076L3.33719 35.1219C2.97385 37.1267 2.96736 37.5421 3.28528 37.7042C3.38262 37.7498 3.69405 37.8081 3.97953 37.8341C4.6024 37.8925 4.72568 37.9769 4.72568 38.3532C4.72568 38.5023 4.69973 38.658 4.66728 38.7036C4.57646 38.8528 4.14174 38.9112 3.05819 38.9112H2.00062V38.5608C2.00062 37.8795 2.74675 32.825 2.88302 32.6109C2.92842 32.533 3.05819 32.5525 4.82301 32.9547C7.70378 33.6036 7.94385 33.6554 8.11255 33.6554C8.26177 33.6554 8.30071 33.6036 8.4759 33.1819C8.58618 32.9287 8.73542 32.4812 8.81328 32.1957C9.03389 31.4104 9.50104 30.0999 10.2342 28.2636C10.5911 27.3553 10.8895 26.5766 10.8895 26.5377C10.8895 26.395 10.4289 26.0705 9.68271 25.6941C8.90411 25.2984 6.84734 24.3771 6.74352 24.3771C6.68513 24.3771 5.73784 26.5442 5.49778 27.2449C5.42891 27.4378 5.37466 27.5527 5.39681 27.6502C5.43727 27.8283 5.73259 27.9486 6.65918 28.3803C7.04847 28.5621 7.06145 28.8086 6.70459 29.2305C6.58781 29.3667 6.47102 29.4381 6.36072 29.4381C6.14661 29.4381 4.58943 28.906 4.36882 28.7632C4.14174 28.614 4.15471 28.3545 4.45966 27.446C4.78407 26.4598 5.17985 25.5514 5.90006 24.1109C6.30232 23.3063 6.50994 22.9495 6.58781 22.9495C6.64621 22.9495 7.52861 23.3777 8.54727 23.9033C11.2723 25.3114 11.4021 25.3698 11.5124 25.2789C11.5643 25.24 11.9147 24.7144 12.291 24.1109C13.1345 22.7614 13.8417 21.7492 14.9058 20.3607C14.9876 20.2527 15.0677 20.1472 15.1441 20.0464C15.4858 19.5962 15.754 19.2429 15.7752 19.2057C15.866 19.063 15.6519 18.7645 15.042 18.1935C14.4905 17.6745 13.0696 16.4806 12.5894 16.1302L12.3689 15.9745L12.0055 16.3638C11.5448 16.8569 10.8441 17.7199 10.4548 18.2909C10.0785 18.8359 10.0979 18.9397 10.643 19.3225C11.1815 19.6989 11.3437 19.8806 11.3437 20.1077C11.3437 20.3672 11.0323 20.6787 10.7727 20.6787C10.4743 20.6787 8.68352 19.5367 8.68352 19.3485C8.68352 19.0825 10.1109 17.1749 11.999 14.9234L12.4986 14.3264L13.7898 15.5073C14.3459 16.0176 14.9702 16.584 15.3504 16.9289C15.4537 17.0226 15.539 17.1 15.6 17.1554C16.145 17.642 16.7549 18.0832 16.8847 18.0832C16.9236 18.0832 16.995 17.9989 17.0404 17.8951C17.1961 17.5512 20.3429 14.8131 21.8093 13.7555C22.2245 13.4505 22.5683 13.165 22.5683 13.1131C22.5683 13.0158 21.0307 10.7059 20.4661 9.95321C20.252 9.66773 20.0444 9.42766 19.9926 9.4082C19.9407 9.38872 19.7589 9.46009 19.5838 9.5704C19.3048 9.74559 17.1702 11.2769 17.0339 11.4001C17.0015 11.4261 17.1961 11.7505 17.4686 12.1139C17.7411 12.4772 17.9617 12.8276 17.9617 12.899C17.9617 12.9703 17.832 13.165 17.6762 13.3337C17.4167 13.6062 17.3778 13.6257 17.235 13.5608C17.0663 13.4829 16.0088 12.2956 15.7168 11.8608C15.5805 11.6532 15.5676 11.5883 15.6324 11.4845C15.7557 11.2963 16.3526 10.7967 17.4102 10.0051C19.175 8.68148 20.5116 7.81851 20.6219 7.93531C20.6544 7.96776 21.2253 8.85668 21.9002 9.90781C22.2028 10.3793 22.4951 10.8352 22.7329 11.2063C23.0254 11.6624 23.2357 11.9904 23.2822 12.062C23.3729 12.1982 23.4963 12.3085 23.5612 12.3085C23.7557 12.3085 24.6577 11.9062 26.4289 11.0303C27.3567 10.5696 28.5311 10.0246 29.0437 9.81696C29.5498 9.60285 30.1012 9.3498 30.257 9.25246L30.5424 9.07079L30.4192 8.62957C30.1791 7.7666 29.4005 5.59299 29.1734 5.15177C29.0502 4.9117 29.0372 4.89872 28.8101 4.94415C28.1482 5.06092 25.6957 5.96283 25.5985 6.12503C25.579 6.15748 25.6892 6.48839 25.8514 6.85174C26.0072 7.22159 26.1369 7.57195 26.1369 7.63035C26.1369 7.7666 25.858 8.03913 25.5595 8.18836C25.3389 8.29867 25.3323 8.29867 25.2352 8.17539C25.0729 7.98073 24.3462 6.60518 24.197 6.22885L24.0607 5.88497L24.502 5.66436C25.7996 5.01552 29.3745 3.614 29.7444 3.614C29.9001 3.614 30.0754 3.8411 30.2246 4.23689C30.3023 4.45102 30.6398 5.54107 30.9771 6.66358C31.0998 7.0716 31.2155 7.45733 31.3139 7.78494C31.4861 8.3586 31.6048 8.75403 31.6129 8.77882C31.6325 8.83071 32.0283 8.75934 32.8329 8.56469C34.2926 8.22081 36.038 7.88988 37.6211 7.66929C38.2829 7.57844 38.9187 7.48761 39.0356 7.46815L39.2432 7.4357V6.54678C39.2432 5.63192 39.094 3.71133 38.9901 3.26363C38.9557 3.12423 38.9371 3.02641 38.8805 2.96208C38.7446 2.80784 38.3902 2.84611 37.0762 2.96516C36.1614 3.0495 35.3826 3.14035 35.3438 3.1663C35.292 3.19875 35.292 3.38692 35.3503 3.88004C35.3891 4.24988 35.4152 4.68459 35.4022 4.84681L35.3826 5.1388L35.0648 5.15826C34.6236 5.1842 34.4614 5.13231 34.3512 4.92467C34.2212 4.67162 33.9683 3.38692 33.9618 2.93273L33.9553 2.54989L34.5392 2.4396ZM56.0802 11.6532C52.4598 9.89482 48.82 8.86965 44.6934 8.44789C43.4672 8.32461 40.5669 8.27272 39.373 8.35706C36.2132 8.57117 32.7744 9.2914 30.257 10.2647C27.8953 11.1731 24.8781 12.6913 23.1978 13.8074C16.6706 18.1611 11.9017 24.6496 9.71514 32.1567C6.99008 41.5 8.54078 51.6869 13.913 59.8039C15.8595 62.7496 19.973 66.9088 22.8603 68.8619C29.4979 73.3519 37.8482 75.4021 45.4394 74.3964C52.2717 73.4946 58.1889 70.8927 63.12 66.6234C69.472 61.1211 73.3974 53.88 74.4096 45.789C74.7599 43.0248 74.7534 39.56 74.4096 36.997C73.1315 27.5564 67.8045 19.05 59.9083 13.8333C58.4744 12.886 57.6633 12.4253 56.0802 11.6532Z" fill="#D3C485"/>
</svg>
