<svg width="32" height="31" viewBox="0 0 32 31" fill="none" xmlns="http://www.w3.org/2000/svg">
<path fill-rule="evenodd" clip-rule="evenodd" d="M32 15.4483C32 16.2596 31.5463 16.9564 31.1461 17.5711C30.8781 17.9826 30.6251 18.3713 30.5439 18.7236C30.4572 19.0995 30.5151 19.572 30.5764 20.0722L30.5764 20.0724L30.5765 20.0727C30.6682 20.8209 30.763 21.5946 30.4181 22.2997C30.0673 23.0172 29.3577 23.4471 28.7315 23.8265L28.7313 23.8266L28.7304 23.8271C28.3017 24.0869 27.8967 24.3323 27.6611 24.6234C27.4228 24.9178 27.2689 25.3643 27.106 25.8371C26.8703 26.5211 26.6031 27.2965 25.9762 27.7903C25.3526 28.2816 24.5293 28.3668 23.8029 28.442L23.8024 28.442C23.297 28.4944 22.8198 28.5438 22.4722 28.7092C22.1367 28.8689 21.8066 29.2012 21.457 29.5531L21.4563 29.5538L21.4561 29.554C20.9396 30.074 20.3541 30.6634 19.5601 30.8415C19.3892 30.8798 19.2197 30.8965 19.0516 30.8965C18.4667 30.8965 17.8976 30.6947 17.343 30.4981L17.3426 30.4979C16.8572 30.3258 16.3987 30.1632 16 30.1632C15.6014 30.1632 15.1432 30.3257 14.6579 30.4978L14.657 30.4981C13.943 30.7513 13.2047 31.013 12.44 30.8416C11.6458 30.6635 11.0603 30.074 10.5437 29.5539L10.5431 29.5532C10.1934 29.2013 9.86322 28.8689 9.52769 28.7092C9.18023 28.5439 8.70303 28.4944 8.1978 28.4421L8.19706 28.442C7.47069 28.3669 6.64744 28.2816 6.02375 27.7903C5.39681 27.2965 5.12963 26.5211 4.89394 25.8369L4.89366 25.8361C4.73083 25.3637 4.57705 24.9176 4.33894 24.6234C4.10323 24.3322 3.69801 24.0867 3.26896 23.8268L3.26875 23.8267L3.26841 23.8265C2.64231 23.4471 1.93269 23.0172 1.58187 22.2997C1.237 21.5945 1.33181 20.8207 1.42356 20.0724L1.42369 20.0713C1.48489 19.5714 1.54269 19.0993 1.45613 18.7236C1.37494 18.3713 1.12188 17.9826 0.853938 17.5711L0.853928 17.5711C0.45368 16.9563 0 16.2596 0 15.4483C0 14.6372 0.453603 13.9404 0.853825 13.3257L0.853938 13.3255C1.12188 12.914 1.37494 12.5253 1.45613 12.1729C1.5428 11.797 1.4849 11.3246 1.42359 10.8244L1.42356 10.8241L1.42352 10.8238C1.33185 10.0756 1.23705 9.30194 1.58187 8.59686C1.9327 7.87932 2.64229 7.44944 3.26847 7.07009L3.26875 7.06992L3.26959 7.06941C3.69834 6.80963 4.10334 6.56425 4.33894 6.2731C4.57725 5.97874 4.73112 5.53223 4.894 5.05947C5.12969 4.37541 5.39687 3.60002 6.02375 3.10621C6.64737 2.61493 7.47069 2.52971 8.19706 2.45457L8.19766 2.4545C8.703 2.40216 9.1802 2.35274 9.52775 2.18737C9.86328 2.02767 10.1934 1.69529 10.543 1.34339L10.5437 1.3427L10.5439 1.34251C11.0605 0.822504 11.6459 0.233162 12.4399 0.0550351C13.2044 -0.116541 13.9426 0.145232 14.6567 0.398432L14.657 0.398548L14.6574 0.3987C15.1428 0.570802 15.6013 0.733355 16 0.733355C16.3986 0.733355 16.8568 0.570901 17.3421 0.398857L17.343 0.398548L17.3434 0.398392C18.0574 0.145267 18.7954 -0.116408 19.56 0.0550351C20.3542 0.233121 20.9397 0.822583 21.4562 1.3427L21.4569 1.34336C21.8065 1.69527 22.1368 2.02767 22.4723 2.18737C22.8198 2.35272 23.297 2.40215 23.8022 2.45449L23.8029 2.45457C24.5293 2.52971 25.3526 2.61499 25.9762 3.10627C26.6032 3.60014 26.8704 4.37554 27.1061 5.05966L27.1063 5.06048C27.2692 5.53287 27.4229 5.97897 27.6611 6.27316C27.8968 6.56439 28.302 6.80987 28.731 7.06979L28.7313 7.06992L28.7316 7.07013C29.3577 7.44947 30.0673 7.8794 30.4181 8.59686C30.763 9.30211 30.6682 10.0759 30.5764 10.8242L30.5763 10.8252C30.5151 11.3251 30.4573 11.7973 30.5439 12.173C30.6251 12.5253 30.8781 12.914 31.1461 13.3255C31.5463 13.9402 32 14.637 32 15.4483ZM29.3251 18.4496C29.455 17.8857 29.7802 17.3861 30.0948 16.903L30.0948 16.903C30.4318 16.3854 30.75 15.8966 30.75 15.4483C30.75 15.0001 30.4319 14.5115 30.0951 13.994L30.0948 13.9935C29.7802 13.5105 29.455 13.0109 29.3251 12.447C29.1903 11.8616 29.2641 11.2587 29.3356 10.6757L29.3357 10.6748C29.4089 10.0772 29.478 9.51291 29.2927 9.13403C29.1012 8.7426 28.6041 8.44144 28.0779 8.12269L28.0775 8.12244C27.5758 7.81846 27.057 7.50414 26.6848 7.04429C26.3101 6.5814 26.1133 6.01033 25.923 5.4581L25.9228 5.45751C25.7249 4.88299 25.5379 4.34028 25.197 4.07179C24.859 3.80546 24.2828 3.74581 23.6727 3.6827C23.0831 3.6217 22.4734 3.55859 21.9298 3.29986C21.3975 3.0466 20.9741 2.62039 20.5645 2.20811L20.5641 2.20763L20.564 2.20755C20.1296 1.77021 19.7193 1.35714 19.2833 1.2594C18.8748 1.16763 18.3377 1.35803 17.7685 1.55977L17.7652 1.56092C17.2004 1.76124 16.6162 1.96835 16 1.96835C15.384 1.96835 14.8001 1.76135 14.2355 1.56118L14.2347 1.56092L14.2344 1.56082C13.6642 1.35863 13.1259 1.16772 12.7166 1.2594C12.2808 1.35715 11.8703 1.77026 11.4359 2.20769L11.4357 2.20789C11.0262 2.62019 10.6027 3.04654 10.0702 3.29992C9.52662 3.55865 8.91694 3.62176 8.32731 3.68277L8.32673 3.68283C7.71682 3.74597 7.14083 3.80561 6.80294 4.07179C6.4623 4.34013 6.27537 4.88252 6.07745 5.45683L6.07725 5.45739L6.07705 5.45796C5.88674 6.01026 5.68993 6.58139 5.31519 7.04436C4.94294 7.50427 4.42394 7.8187 3.92213 8.12269C3.39581 8.4415 2.89875 8.74266 2.70731 9.13403C2.522 9.51305 2.59113 10.0777 2.66444 10.6756C2.73594 11.2588 2.80975 11.8617 2.67494 12.447C2.545 13.0109 2.21975 13.5105 1.90519 13.9936L1.90517 13.9936C1.56824 14.5111 1.25 14.9999 1.25 15.4483C1.25 15.8966 1.56815 16.3853 1.90504 16.9028L1.90519 16.9031C2.21975 17.3861 2.545 17.8857 2.67494 18.4496C2.80975 19.035 2.73588 19.6379 2.66438 20.2209L2.66426 20.2219C2.59111 20.8194 2.52203 21.3837 2.70731 21.7626C2.89875 22.154 3.39588 22.4552 3.92213 22.7739L3.92254 22.7742C4.42422 23.0781 4.94298 23.3925 5.31519 23.8523C5.68987 24.3152 5.88668 24.8863 6.07699 25.4385L6.07719 25.4391C6.27513 26.0136 6.46213 26.5563 6.803 26.8248C7.141 27.0911 7.71719 27.1508 8.32731 27.2139C8.91694 27.2749 9.52663 27.338 10.0702 27.5967C10.6025 27.85 11.0259 28.2762 11.4355 28.6885L11.4359 28.689L11.436 28.6891C11.8704 29.1264 12.2807 29.5395 12.7167 29.6372C13.1253 29.7289 13.6626 29.5385 14.2319 29.3367L14.2347 29.3357C14.7996 29.1354 15.3838 28.9283 16 28.9283C16.616 28.9283 17.1999 29.1352 17.7645 29.3354L17.7652 29.3357L17.7668 29.3362C18.3366 29.5383 18.8744 29.7291 19.2834 29.6372C19.7192 29.5394 20.1297 29.1263 20.5641 28.6889L20.5643 28.6887C20.9738 28.2764 21.3973 27.8501 21.9298 27.5967C22.4734 27.3379 23.0831 27.2748 23.6727 27.2138L23.6733 27.2138C24.2832 27.1506 24.8592 27.091 25.1971 26.8248C25.5377 26.5565 25.7246 26.0141 25.9226 25.4398L25.9228 25.4392L25.9229 25.4386C26.1133 24.8863 26.3101 24.3152 26.6848 23.8522C27.0571 23.3923 27.5761 23.0779 28.0779 22.7739C28.6042 22.4551 29.1012 22.1539 29.2927 21.7626C29.478 21.3836 29.4089 20.8189 29.3356 20.221C29.2641 19.6378 29.1903 19.0349 29.3251 18.4496ZM16 3.22774C9.17971 3.22774 3.63103 8.70982 3.63103 15.4482C3.63103 22.1867 9.17971 27.6688 16 27.6688C22.8203 27.6688 28.369 22.1867 28.369 15.4482C28.369 8.70982 22.8203 3.22774 16 3.22774ZM16 26.4338C9.86896 26.4338 4.88103 21.5057 4.88103 15.4483C4.88103 9.39091 9.86896 4.46274 16 4.46274C22.1311 4.46274 27.119 9.39085 27.119 15.4482C27.119 21.5056 22.1311 26.4338 16 26.4338ZM23.0451 10.1056C22.4886 9.64247 21.782 9.42116 21.058 9.48272C20.333 9.5441 19.6758 9.88076 19.2073 10.4306L15.1371 15.2061L13.1727 13.1878C12.1318 12.1181 10.404 12.0846 9.32146 13.1131C8.79696 13.6112 8.50034 14.2814 8.48609 15.0001C8.47178 15.7188 8.74171 16.4 9.24596 16.9181L13.3078 21.0918C13.8185 21.6167 14.5341 21.9177 15.2711 21.9177C15.3008 21.9177 15.3305 21.9172 15.3609 21.9163C16.1316 21.8912 16.8583 21.5426 17.3546 20.9601L23.3741 13.8975C23.8428 13.3477 24.0667 12.6505 24.0046 11.9342C23.9423 11.218 23.6016 10.5685 23.0451 10.1056ZM22.418 13.1018L16.3985 20.1645C16.1299 20.4797 15.7367 20.6682 15.3205 20.6818C14.9043 20.6948 14.4966 20.5315 14.2089 20.2358L10.147 16.0621C9.87421 15.7817 9.72821 15.4131 9.7359 15.0243C9.74359 14.6354 9.90409 14.2728 10.1878 14.0032C10.4732 13.7321 10.8414 13.5975 11.2091 13.5975C11.5962 13.5975 11.9829 13.7468 12.2718 14.0437L14.7174 16.5566C14.8401 16.6828 15.0111 16.751 15.1885 16.7457C15.3656 16.74 15.5318 16.6602 15.646 16.5263L20.1635 11.226C20.417 10.9285 20.7726 10.7463 21.1648 10.7131C21.5565 10.6797 21.9389 10.7995 22.24 11.0501C22.5411 11.3006 22.7255 11.652 22.7591 12.0395C22.7928 12.427 22.6716 12.8044 22.418 13.1018Z" fill="#FBFBFB"/>
</svg>
