<svg width="33" height="33" viewBox="0 0 33 33" fill="none" xmlns="http://www.w3.org/2000/svg">
<path fill-rule="evenodd" clip-rule="evenodd" d="M0 16.5C0 25.5985 7.40153 33 16.5 33C25.5985 33 33 25.5985 33 16.5C33 7.40153 25.5985 0 16.5 0C7.40153 0 0 7.40153 0 16.5ZM2.0625 16.5C2.0625 8.53878 8.53878 2.0625 16.5 2.0625C24.4612 2.0625 30.9375 8.53878 30.9375 16.5C30.9375 24.4612 24.4612 30.9375 16.5 30.9375C8.53878 30.9375 2.0625 24.4612 2.0625 16.5ZM22.9899 25.1349C23.1908 25.3371 23.4546 25.4376 23.7187 25.4376C23.9829 25.4376 24.2467 25.3371 24.4476 25.1349C24.8505 24.7321 24.8505 24.079 24.4476 23.6762L17.5312 16.7598V7.5624C17.5312 6.99315 17.0693 6.53115 16.5 6.53115C15.9307 6.53115 15.4687 6.99315 15.4687 7.5624V17.1876C15.4687 17.4597 15.5773 17.7223 15.7711 17.9162L22.9899 25.1349Z" fill="#FBFBFB"/>
</svg>
