<svg width="33" height="33" viewBox="0 0 33 33" fill="none" xmlns="http://www.w3.org/2000/svg">
<path fill-rule="evenodd" clip-rule="evenodd" d="M17.1445 4.51172C17.1445 4.86769 16.8559 5.15625 16.4999 5.15625C16.1439 5.15625 15.8554 4.86769 15.8554 4.51172V0.644531C15.8554 0.288557 16.1439 0 16.4999 0C16.8559 0 17.1445 0.288557 17.1445 0.644531V4.51172ZM0.162367 15.2522L0.160159 15.2495C-0.0440994 15.0171 -0.0537677 14.6719 0.135666 14.4289C0.136574 14.4277 0.137346 14.4265 0.138113 14.4253C0.138925 14.424 0.139733 14.4228 0.140693 14.4216L5.2971 7.97627C5.41943 7.82338 5.60461 7.73438 5.80043 7.73438H27.1995C27.3953 7.73438 27.5806 7.82338 27.7028 7.97627L32.8592 14.4216C32.8602 14.4228 32.861 14.4241 32.8619 14.4254C32.8626 14.4266 32.8634 14.4278 32.8643 14.4289C33.0518 14.6693 33.0463 15.0145 32.8398 15.2495L32.8372 15.2526L32.8347 15.2557L32.834 15.2566L16.978 32.7878C16.859 32.9194 16.6802 33 16.5 33C16.3191 33 16.14 32.9185 16.0219 32.7878L0.16596 15.2566L0.165251 15.2557C0.164235 15.2546 0.1633 15.2534 0.162367 15.2522ZM20.0023 9.02344H12.9975L9.9037 14.1797H23.0962L20.0023 9.02344ZM16.4999 30.7587L23.2456 15.4688H9.75416L16.4999 30.7587ZM30.9039 15.4688H24.6547L18.703 28.9587L30.9039 15.4688ZM14.2968 28.9587L8.34517 15.4688H2.09594L14.2968 28.9587ZM24.5994 14.1797H31.0148L26.8897 9.02344H21.5056L24.5994 14.1797ZM11.4942 9.02344H6.11013L1.98501 14.1797H8.40035L11.4942 9.02344ZM19.7227 17.4023C19.7227 17.0466 20.0114 16.7578 20.3672 16.7578C20.723 16.7578 21.0118 17.0466 21.0118 17.4023C21.0118 17.7581 20.723 18.0469 20.3672 18.0469C20.0114 18.0469 19.7227 17.7581 19.7227 17.4023ZM17.789 16.7578H13.0051C12.6492 16.7578 12.3606 17.0464 12.3606 17.4023C12.3606 17.7583 12.6492 18.0469 13.0051 18.0469H17.789C18.145 18.0469 18.4336 17.7583 18.4336 17.4023C18.4336 17.0464 18.145 16.7578 17.789 16.7578ZM20.823 4.96754L23.4012 2.38941C23.6529 2.13772 23.6529 1.72961 23.4012 1.47785C23.1495 1.2261 22.7414 1.22616 22.4896 1.47785L19.9114 4.05598C19.6597 4.30767 19.6597 4.71579 19.9114 4.96754C20.1631 5.21923 20.5713 5.21929 20.823 4.96754ZM13.0884 4.96751C12.8367 5.2192 12.4286 5.2192 12.1769 4.96751L9.59866 2.38939C9.34696 2.13764 9.3469 1.72952 9.59866 1.47783C9.85042 1.22614 10.2585 1.22614 10.5102 1.47783L13.0884 4.05595C13.3401 4.30771 13.3401 4.71582 13.0884 4.96751Z" fill="#FBFBFB"/>
</svg>
