<svg width="18" height="22" viewBox="0 0 18 22" fill="none" xmlns="http://www.w3.org/2000/svg">
<path fill-rule="evenodd" clip-rule="evenodd" d="M8.67157 7.1591L11.8536 10.6159C12.0488 10.828 12.0488 11.172 11.8536 11.3841L8.67157 14.8409C8.47631 15.053 8.15973 15.053 7.96447 14.8409C7.7692 14.6288 7.7692 14.2849 7.96447 14.0727L10.2929 11.5432H0V10.4568H10.2929L7.96447 7.92728C7.7692 7.71515 7.7692 7.37122 7.96447 7.1591C8.15973 6.94697 8.47631 6.94697 8.67157 7.1591Z" fill="#FBFBFB"/>
<path fill-rule="evenodd" clip-rule="evenodd" d="M16.5 1.04762H5V0H16.5C17.3284 0 18 0.703553 18 1.57143V20.4286C18 21.2964 17.3284 22 16.5 22H5V20.9524H16.5C16.7761 20.9524 17 20.7179 17 20.4286V1.57143C17 1.28214 16.7761 1.04762 16.5 1.04762Z" fill="#FBFBFB"/>
</svg>
