<svg width="12" height="12" viewBox="0 0 12 12" fill="none" xmlns="http://www.w3.org/2000/svg">
<path d="M6.29844 4.19933C5.25181 4.19933 4.39767 5.00853 4.39767 6.0001C4.39767 6.99167 5.25181 7.80086 6.29844 7.80086C7.34508 7.80086 8.19922 6.99167 8.19922 6.0001C8.19922 5.00853 7.34508 4.19933 6.29844 4.19933ZM11.9993 6.0001C11.9993 5.25439 12.0065 4.51544 11.9623 3.77109C11.9181 2.90651 11.7099 2.13919 11.0425 1.50696C10.3738 0.873384 9.56527 0.677501 8.65267 0.635623C7.86555 0.593745 7.08556 0.600499 6.29987 0.600499C5.51275 0.600499 4.73277 0.593745 3.94707 0.635623C3.03447 0.677501 2.22454 0.874735 1.5572 1.50696C0.888439 2.14054 0.681678 2.90651 0.637474 3.77109C0.59327 4.5168 0.6004 5.25574 0.6004 6.0001C0.6004 6.74445 0.59327 7.48475 0.637474 8.2291C0.681678 9.09369 0.889865 9.86101 1.5572 10.4932C2.22597 11.1268 3.03447 11.3227 3.94707 11.3646C4.73419 11.4065 5.51418 11.3997 6.29987 11.3997C7.08699 11.3997 7.86697 11.4065 8.65267 11.3646C9.56527 11.3227 10.3752 11.1255 11.0425 10.4932C11.7113 9.85966 11.9181 9.09369 11.9623 8.2291C12.0079 7.48475 11.9993 6.7458 11.9993 6.0001ZM6.29844 8.77082C4.68001 8.77082 3.37385 7.53338 3.37385 6.0001C3.37385 4.46681 4.68001 3.22938 6.29844 3.22938C7.91688 3.22938 9.22304 4.46681 9.22304 6.0001C9.22304 7.53338 7.91688 8.77082 6.29844 8.77082ZM9.34282 3.76299C8.96495 3.76299 8.6598 3.47389 8.6598 3.1159C8.6598 2.75791 8.96495 2.46881 9.34282 2.46881C9.72069 2.46881 10.0258 2.75791 10.0258 3.1159C10.026 3.20091 10.0084 3.2851 9.97408 3.36365C9.9398 3.44221 9.88949 3.51359 9.82604 3.5737C9.76259 3.63381 9.68725 3.68147 9.60433 3.71395C9.52142 3.74643 9.43255 3.76309 9.34282 3.76299Z" fill="#D3C485"/>
</svg>
