<svg width="71" height="71" viewBox="0 0 71 71" fill="none" xmlns="http://www.w3.org/2000/svg">
<path fill-rule="evenodd" clip-rule="evenodd" d="M22.7188 2.29771C26.2265 0.926767 29.3568 0.277374 33.7637 0.0165074C34.5463 -0.0334459 37.9875 0.0387088 38.8699 0.116413C43.6264 0.549341 47.3395 1.60391 51.4965 3.7075C61.5868 8.79717 68.4913 18.0552 70.5615 29.2613C70.9112 31.1595 71 32.4417 71 35.5333C71 38.6304 70.9333 39.6183 70.5837 41.5554C69.6513 46.695 67.7698 51.3185 64.9447 55.4368C63.6349 57.3461 62.3972 58.8115 60.4657 60.7319C58.0291 63.1574 56.0699 64.6671 53.2616 66.26C48.6715 68.8743 43.9206 70.3562 38.3759 70.9001C37.0272 71.0333 33.7415 71.0333 32.4039 70.9001C28.9072 70.556 25.6493 69.779 22.5523 68.5579C15.7089 65.8549 9.84793 61.0815 5.77963 54.8873C2.92683 50.5469 1.08971 45.7071 0.357093 40.6007C-1.13591 30.2161 2.10541 19.5149 9.0931 11.7333C12.8173 7.5761 17.4683 4.36243 22.7188 2.29771ZM35.7063 3.64644C35.6619 1.95914 35.562 0.904565 35.4344 0.732504C35.3677 0.643698 34.7295 0.582644 34.2355 0.627047L34.2108 0.62902C34.0461 0.642212 33.5897 0.678749 33.1532 0.710302C31.083 0.854611 28.3357 1.25979 27.825 1.4929C27.6751 1.55951 27.6751 1.56506 27.7029 1.98133C27.7362 2.51972 28.0803 3.98501 28.3689 4.86752L28.6021 5.56131L28.7963 5.55577C28.9018 5.55577 29.49 5.46141 30.1006 5.3504C30.7111 5.23939 31.2939 5.13393 31.3938 5.11728L31.5714 5.08399V4.37354C31.5714 3.7741 31.5881 3.64089 31.6713 3.54653C31.81 3.38557 32.0376 3.35228 32.1763 3.46883C32.2985 3.56874 32.4039 4.13488 32.4871 5.10618C32.5096 5.39412 32.517 5.48806 32.4735 5.53569C32.4525 5.55876 32.4195 5.57096 32.3706 5.58907C32.1209 5.68897 28.0914 6.37167 27.9971 6.33281C27.7917 6.25511 27.603 5.66677 27.0202 3.36892C26.6816 2.03683 26.5651 1.87033 25.9712 1.94248C25.1332 2.04239 20.2989 4.00167 19.4442 4.59C19.2056 4.75652 19.1889 4.78427 19.2167 4.93967C19.2777 5.24495 20.6209 7.68155 21.0038 8.18109L21.137 8.3587L21.6809 8.13113C21.9751 8.00902 22.5745 7.73706 23.013 7.52614C23.7512 7.17647 23.8066 7.13762 23.7734 7.02106C23.7512 6.94891 23.6513 6.66584 23.5513 6.39387L23.5325 6.34243L23.5325 6.3424C23.3461 5.83168 23.2988 5.70213 23.344 5.63291C23.3593 5.60939 23.3853 5.59283 23.4202 5.57065L23.4202 5.57064L23.4348 5.56131C23.5126 5.51136 23.6734 5.45586 23.7901 5.43921C24.0731 5.40035 24.1674 5.52246 24.4616 6.27731C24.7724 7.06546 24.8501 7.37628 24.7502 7.40959C24.7113 7.42069 24.3617 7.5872 23.9731 7.78146C23.5902 7.97017 22.6744 8.40865 21.9474 8.75277C20.6653 9.36887 20.6209 9.38551 20.5431 9.28006C20.499 9.21938 19.9668 8.33066 19.35 7.30069L19.3388 7.28192C18.4896 5.84993 18.1899 5.38925 18.1011 5.37816C17.9512 5.35595 17.5405 5.58352 16.5581 6.22736C15.1872 7.13206 13.2447 8.63066 11.9681 9.77959C11.7184 10.0072 11.7017 10.0349 11.7683 10.1348C11.8127 10.1959 12.3177 10.7509 12.895 11.367C13.4777 11.9831 14.0883 12.6324 14.2548 12.8156L14.5601 13.1487L15.7422 12.1108C16.4749 11.4669 16.9022 11.0506 16.88 11.0118C16.8578 10.9729 16.6969 10.7509 16.5193 10.5123C16.0641 9.89615 16.0308 9.68523 16.3583 9.51872C16.5248 9.43547 16.5636 9.43547 16.6969 9.50207C16.9355 9.62417 18.0011 10.9895 17.9401 11.0895C17.9235 11.1172 17.6071 11.3948 17.2353 11.7055C15.9698 12.7656 15.3371 13.3152 14.9152 13.7204L14.4934 14.1311L14.2215 13.9035C14.0716 13.7813 13.278 13.0321 12.4565 12.2329L10.9691 10.7842L10.1809 11.589C9.0487 12.738 7.67225 14.4419 6.70096 15.885C6.13485 16.7287 5.99609 16.9951 6.07379 17.1172C6.17925 17.2892 8.41597 18.7434 9.0709 19.0654C9.36506 19.2097 9.36506 19.2097 9.48716 19.0987C9.62036 18.982 10.2753 18.0995 10.8303 17.2892L11.1966 16.7508L10.6971 16.2958C10.1643 15.8073 10.0699 15.6463 10.2364 15.4631C10.4252 15.2523 10.5195 15.2356 10.747 15.3522C11.1245 15.5465 12.0291 16.2958 12.068 16.4511C12.1013 16.5677 11.957 16.8063 11.2244 17.8998C10.1143 19.5483 9.60372 20.242 9.48161 20.242C9.35951 20.242 8.82669 19.959 7.09503 18.9654C6.17369 18.4381 5.58538 18.1329 5.48548 18.1329C5.27457 18.1329 5.10251 18.3937 4.43094 19.7702C3.82597 21.0135 3.4652 21.8183 3.04339 22.8673C2.72147 23.6833 2.08875 25.415 2.11095 25.4261C2.12206 25.4316 2.92128 25.6702 3.89257 25.9533C4.99151 26.2752 5.76853 26.4751 5.94614 26.4806L6.2292 26.4862L6.33465 26.2087L6.35057 26.1641L6.35058 26.1641L6.35065 26.1639C6.42619 25.9527 6.64046 25.3535 6.84527 24.7544L7.25043 23.5777L6.82862 23.4168C6.756 23.3898 6.67722 23.3602 6.59868 23.3307C6.4191 23.2633 6.2408 23.1963 6.1404 23.1615C5.82959 23.0449 5.80738 22.9451 6.00164 22.6009C6.11265 22.4122 6.15705 22.3789 6.30135 22.3844C6.67321 22.4011 8.03856 23.1781 8.03856 23.3724C8.03856 23.4112 7.79991 24.1106 7.51129 24.9376C7.22268 25.7591 6.89522 26.6859 6.78422 26.9912L6.58996 27.5574L6.12375 27.4519C5.86844 27.3965 5.11361 27.2133 4.44759 27.0412C3.05449 26.6804 2.27746 26.514 2.01106 26.514C1.83344 26.514 1.82235 26.5305 1.7391 26.8026C1.28398 28.4011 0.529149 34.1623 0.756708 34.3066C0.873262 34.3787 1.7835 34.4509 3.31535 34.5065C4.15343 34.5341 4.8472 34.5508 4.8583 34.5397C4.8694 34.5286 4.93045 33.9736 4.99151 33.3076C5.10251 32.092 5.10806 31.4981 5.00815 31.3983C4.9804 31.3705 4.74175 31.3205 4.48089 31.2983C3.97582 31.2429 3.65945 31.1207 3.64836 30.9654C3.62061 30.5879 3.76491 30.4547 4.19783 30.4547C4.48089 30.4547 5.87954 30.6101 5.91839 30.649C5.92394 30.6545 5.88509 31.0319 5.82404 31.487C5.76298 31.9422 5.66308 32.8747 5.60203 33.5629L5.56136 33.9836L5.56127 33.9845C5.51008 34.5143 5.46539 34.9769 5.45217 35.1004L5.42442 35.3945H3.00454H0.590201L0.623503 35.7664C0.640153 35.9773 0.684555 36.5545 0.712306 37.0596C0.82331 38.8025 1.19517 41.6719 1.46713 42.9319C1.52403 43.1879 1.54447 43.2799 1.6 43.313C1.63113 43.3315 1.67329 43.3315 1.7391 43.3315C2.05545 43.3315 5.00815 42.7043 5.39667 42.5544L5.55763 42.4934L5.52432 42.0661C5.49102 41.6886 5.11361 39.4462 5.07476 39.4019C5.06366 39.3963 4.825 39.424 4.53639 39.474C3.75381 39.6016 3.60951 39.5905 3.53735 39.4019C3.47076 39.2354 3.5096 38.7913 3.59841 38.7025C3.6317 38.6693 3.98692 38.6248 4.39209 38.6026C4.7917 38.5859 5.21351 38.5471 5.33007 38.5304C5.49657 38.4972 5.54098 38.5083 5.59092 38.6082C5.62978 38.6747 5.76853 39.3408 5.90729 40.1012C6.16815 41.5387 6.4179 42.8541 6.46231 43.0096C6.49561 43.1205 6.12375 43.2483 4.37543 43.72C2.23306 44.2973 1.93335 44.4194 1.93335 44.6858C1.93335 45.2964 4.26443 51.163 4.77505 51.8458C4.85275 51.9401 4.88605 51.929 5.47992 51.6293C6.96737 50.8855 8.37157 50.0752 8.37157 49.9586C8.37157 49.7976 7.96641 48.793 7.589 48.005C7.29483 47.4055 7.18383 47.2168 7.10058 47.2168C7.04508 47.2168 6.75647 47.3055 6.46231 47.4111C6.16815 47.5165 5.87398 47.6053 5.81294 47.6053C5.69083 47.6053 5.48548 47.3055 5.48548 47.1279C5.48548 46.8948 5.77963 46.7172 6.58441 46.473C7.42804 46.2122 7.52239 46.2343 7.70555 46.7005C7.7777 46.8782 8.14401 47.6719 8.52698 48.4655L8.53571 48.4839C9.39288 50.2807 9.40361 50.3032 9.31511 50.4082C9.22076 50.5248 8.33272 51.0798 6.87302 51.929C6.1848 52.3342 5.56317 52.7116 5.48548 52.7671L5.34672 52.8726L5.51323 53.1944C6.096 54.3268 8.82114 57.99 9.74803 58.8947L10.031 59.1667L10.3308 58.989C11.0301 58.5617 12.9783 56.8578 13.0615 56.5914C13.1059 56.4581 13.0282 56.3193 12.6563 55.8476C12.3955 55.5257 11.4741 54.4322 11.2244 54.1603C11.1688 54.0992 11.0801 54.1436 10.7138 54.4267C10.464 54.6098 10.1809 54.8151 10.0755 54.8762L9.88123 54.9928L9.70917 54.7708C9.48716 54.4933 9.49271 54.3323 9.72027 54.1158C9.93673 53.9105 11.1245 53.0446 11.1855 53.0446C11.2133 53.0501 11.3853 53.2555 11.5741 53.5053C11.8848 53.9272 12.8117 55.0094 13.8274 56.1528L14.2493 56.6246L12.9561 57.929C11.6351 59.2666 10.9802 59.9882 10.9802 60.1103C10.9802 60.2212 12.1069 61.2869 13.0615 62.0861C14.1383 62.9797 15.3426 63.8956 16.3972 64.6115L17.1797 65.1389L17.8347 64.0843C18.6672 62.7355 19.3054 61.6421 19.3054 61.5644C19.3054 61.5311 18.7449 61.1093 18.0567 60.6264L16.8079 59.7494L16.658 59.9382C16.3194 60.3433 15.9421 60.7208 15.82 60.7651C15.6201 60.8429 15.3093 60.6875 15.3093 60.521C15.3093 60.2712 16.325 58.9558 16.5636 58.8947C16.5675 58.8938 16.5712 58.8928 16.5747 58.8919C16.5785 58.8909 16.5822 58.8899 16.5858 58.8889C16.5964 58.886 16.6062 58.8833 16.6162 58.8815C16.7288 58.8613 16.862 58.9557 18.5045 60.1198L18.6006 60.1879C19.7328 60.9983 20.2046 61.359 20.2268 61.4535C20.2712 61.6366 20.1102 61.9696 19.2056 63.5459C18.1843 65.3276 18.0956 65.4996 18.1954 65.6162C18.4341 65.9048 20.8041 67.0982 22.4913 67.7753C23.8177 68.3136 25.2054 68.8076 25.3829 68.8076C25.505 68.8076 25.5327 68.7577 25.7104 68.1804C25.9657 67.3479 26.1988 66.5486 26.4319 65.655L26.6262 64.9224L26.504 64.8392C26.3487 64.7393 25.0166 64.3063 24.2618 64.1121L23.6734 63.9567L23.5736 64.0843C23.518 64.1509 23.407 64.4173 23.3294 64.6726C23.2516 64.9335 23.1462 65.1611 23.0962 65.1944C22.902 65.2998 22.4691 65.0112 22.4691 64.7781C22.4691 64.6115 22.7521 63.9011 23.0074 63.4072C23.1406 63.1518 23.2349 63.0353 23.3072 63.0353C23.3627 63.0353 24.0952 63.285 24.9333 63.5903C25.7715 63.89 26.6928 64.2064 26.9758 64.2897C27.2589 64.3674 27.5253 64.4617 27.5642 64.4894C27.6696 64.5783 27.6474 64.7282 27.4365 65.4497C27.1757 66.3211 26.6483 68.4524 26.5984 68.8076L26.5596 69.0851L26.7761 69.174C27.7473 69.5847 33.02 70.3839 34.1799 70.2951L34.4298 70.2785L34.4963 69.2239C34.5852 67.7308 34.5852 66.2822 34.4963 66.2101C34.4574 66.1768 34.2133 66.1213 33.958 66.0879C33.3086 66.0047 31.5103 65.8826 31.4881 65.9215C31.477 65.9436 31.4271 66.199 31.3771 66.4987C31.2328 67.409 31.0941 67.581 30.65 67.3923L30.4447 67.309L30.478 66.7374C30.5168 66.1213 30.6445 65.4386 30.7389 65.3442C30.9053 65.1778 35.1845 65.4553 35.3344 65.6383C35.3955 65.7105 35.4066 66.1768 35.3899 68.025L35.3733 70.3229L36.5943 70.2896C38.7755 70.234 42.4498 69.7568 43.1935 69.4237C43.3267 69.3682 43.4488 69.2961 43.471 69.2628C43.5266 69.174 42.8271 66.2989 42.6107 65.7161L42.4942 65.4053L42.2333 65.4442C41.6339 65.5274 39.5082 65.9048 39.4804 65.9325C39.4638 65.9492 39.486 66.2322 39.5304 66.5653C39.6358 67.3257 39.6025 67.4145 39.1862 67.5255C38.9476 67.5921 38.881 67.5921 38.8422 67.5366C38.82 67.4978 38.7589 67.0982 38.7089 66.6541C38.659 66.2046 38.6035 65.7328 38.5868 65.6107L38.5536 65.3775L38.9087 65.3165C41.4785 64.8558 42.9327 64.6615 43.1047 64.7503C43.2767 64.8447 43.4877 65.483 44.1759 67.9918C44.2702 68.3525 44.409 68.73 44.4756 68.8243C44.5866 68.9908 44.6144 69.0019 44.8974 68.9964C45.7077 68.9742 50.9915 66.8928 51.6575 66.3322C51.8185 66.199 51.8351 66.1601 51.8018 65.9825C51.7796 65.8715 51.6575 65.5496 51.5188 65.2665C51.0914 64.3507 50.1535 62.6412 50.0701 62.6079C50.0258 62.5912 49.8537 62.619 49.6872 62.669C49.2543 62.8078 47.3894 63.7512 47.3506 63.8568C47.3284 63.9011 47.4116 64.223 47.5337 64.5672C47.7447 65.1778 47.7447 65.1943 47.6448 65.3054C47.5171 65.4442 47.2063 65.5551 47.062 65.5051C46.9454 65.4719 46.729 64.9946 46.4459 64.1564C46.2128 63.4682 46.2184 63.4072 46.5236 63.3239C46.6568 63.2906 47.4616 62.9465 48.3108 62.5579C50.22 61.6921 50.5308 61.57 50.5919 61.6643C50.6141 61.6976 51.1247 62.5801 51.7242 63.6181C51.7891 63.7307 51.8504 63.8372 51.9084 63.9378C52.6047 65.1472 52.8136 65.5102 53.0429 65.5235C53.1412 65.5292 53.2432 65.4706 53.3889 65.387C53.4058 65.3772 53.4233 65.3672 53.4415 65.3569C53.4551 65.3491 53.4691 65.3412 53.4835 65.3332C54.749 64.6338 57.4519 62.6523 58.7451 61.4757L58.7682 61.4548L58.7682 61.4548C59.1465 61.1127 59.2868 60.9858 59.28 60.8673C59.276 60.7974 59.2209 60.7305 59.1333 60.6241L59.117 60.6042C58.6952 60.088 56.6805 57.8679 56.5972 57.829C56.5584 57.8124 55.0377 59.0779 54.5659 59.5219C54.4049 59.6718 54.2717 59.8328 54.2717 59.8826C54.2717 59.9771 54.8489 60.7874 55.0099 60.9206C55.0598 60.9594 55.1042 61.0261 55.1042 61.0649C55.1042 61.1426 54.5159 61.5367 54.4049 61.5367C54.366 61.5367 54.255 61.4201 54.1496 61.2703C53.8221 60.8151 53.2116 59.8105 53.2282 59.7661C53.2393 59.7383 53.5057 59.5108 53.8221 59.261C54.5159 58.7115 55.4317 57.9234 56.1588 57.2629L56.686 56.78L58.1235 58.1621C59.55 59.533 60.1272 60.0381 60.2826 60.0381C60.4379 60.0381 61.4647 58.8558 62.8301 57.0908C64.4174 55.0428 65.1445 53.9715 65.0557 53.8272C64.9114 53.5886 62.5026 52.1122 61.7533 51.7958L61.5425 51.7125L61.1483 52.2454C60.4601 53.1723 59.9329 53.9882 59.9329 54.1214C59.9329 54.2712 60.1549 54.5044 60.5933 54.8041C61.0318 55.1094 61.054 55.1649 60.8209 55.4036C60.5822 55.6533 60.4823 55.6811 60.2548 55.5644C59.8052 55.3369 58.9338 54.5265 58.9338 54.3434C58.9338 54.2601 61.2205 50.8633 61.4037 50.6636C61.4925 50.5692 61.5757 50.608 63.6182 51.768C65.311 52.7227 65.4998 52.8226 65.6385 52.8226C66.027 52.8226 68.8742 46.4619 68.8021 45.7515C68.7855 45.6016 68.7411 45.5572 68.4247 45.4018C67.742 45.0687 65.2111 44.375 65.0502 44.4748C65.0002 44.5082 64.8725 44.708 64.7671 44.9189C64.5396 45.3796 63.8624 47.2112 63.9013 47.2722C63.9124 47.2944 64.2065 47.4332 64.5451 47.5775C65.2555 47.8883 65.3443 47.9827 65.1723 48.2769C65.0002 48.5711 64.9281 48.5877 64.4729 48.4434C63.8457 48.2436 63.2852 47.9661 63.1797 47.8051C63.0465 47.6053 63.0799 47.4832 63.6238 45.9735C63.8791 45.2686 64.151 44.4748 64.2343 44.2084C64.4007 43.6479 64.5396 43.4425 64.756 43.4425C64.8392 43.4425 65.7051 43.6423 66.6874 43.881C67.6644 44.1252 68.6301 44.3361 68.8298 44.3583C69.1573 44.3972 69.1962 44.3861 69.2516 44.2862C69.5625 43.709 70.3673 38.5027 70.3673 37.0873C70.3673 36.7155 70.3562 36.6655 70.2451 36.6044C70.1508 36.5545 69.6124 36.5268 68.1694 36.5157L66.2213 36.4934L66.1602 37.3482C66.0381 38.9966 66.0214 39.4296 66.0881 39.4684C66.1213 39.4907 66.4266 39.5573 66.7707 39.6127C67.1092 39.6738 67.4256 39.7571 67.4701 39.8015C67.5422 39.868 67.5366 39.9236 67.4534 40.1955C67.3979 40.3676 67.3202 40.523 67.2813 40.5397C67.2148 40.5619 65.7106 40.4176 65.4053 40.3565L65.2445 40.3232L65.2832 39.7848C65.3221 39.2132 65.5719 36.5379 65.6385 35.9606L65.6774 35.6109L68.0528 35.6165H70.4227V34.8727C70.4227 33.413 69.8788 28.9672 69.5736 27.8959C69.5125 27.6795 69.4848 27.6518 69.3183 27.6351C68.9187 27.5962 65.8106 28.2955 65.6441 28.4621C65.5774 28.5287 65.5607 28.623 65.5774 28.8506C65.5996 29.117 65.866 30.8044 65.966 31.2872L65.9992 31.4704L66.7596 31.4315L66.7617 31.4314C67.2963 31.4031 67.4868 31.393 67.5547 31.4794C67.5922 31.5271 67.5922 31.6044 67.5922 31.7245V31.7312C67.5922 32.2252 67.3258 32.3584 66.3545 32.364L66.2945 32.3644C65.9021 32.3671 65.6997 32.3684 65.5775 32.2702C65.4473 32.1655 65.408 31.9479 65.3267 31.4986L65.3267 31.4985L65.3166 31.4426C65.2695 31.1762 65.17 30.6663 65.0686 30.1474L65.0676 30.1424C65.0257 29.9279 64.9835 29.712 64.9447 29.5111C64.9107 29.344 64.88 29.1944 64.8524 29.0604L64.8524 29.0604C64.6776 28.2105 64.6323 27.99 64.7211 27.8952C64.7522 27.862 64.7998 27.8442 64.8641 27.8202C64.8946 27.8088 64.9289 27.7959 64.967 27.7794C65.3777 27.5962 65.6995 27.4963 67.3535 27.019C69.0741 26.5195 69.0907 26.514 69.0907 26.2919C69.0907 26.0311 68.9076 25.3594 68.5579 24.3493C67.8697 22.3456 66.4821 19.1319 66.3045 19.1319C66.077 19.1319 63.1353 20.5417 62.7913 20.8193L62.6303 20.9469L62.7913 21.3244C63.0077 21.8405 63.6849 23.1615 63.8679 23.4334C64.0456 23.6944 64.0789 23.6944 64.6894 23.4612C65.3499 23.2059 65.4053 23.2004 65.5109 23.4058C65.5607 23.5001 65.5941 23.6722 65.583 23.7831C65.5663 23.9774 65.5441 23.9997 65.15 24.1938C64.9225 24.3104 64.5285 24.4658 64.2731 24.5491C63.6404 24.7544 63.5682 24.7267 63.3352 24.155C63.2297 23.9108 62.7968 22.995 62.3639 22.1125C61.8754 21.1245 61.5979 20.4973 61.6312 20.4695C61.659 20.4419 62.5803 19.9145 63.6793 19.2984C64.7782 18.6823 65.6995 18.1606 65.7273 18.1329C65.7884 18.0719 65.6163 17.7887 64.7782 16.5066C63.757 14.947 62.5636 13.3706 61.5258 12.2217C61.2205 11.8887 60.9541 11.6056 60.9319 11.5945C60.8819 11.5779 58.623 13.7259 58.34 14.0701L58.2957 14.1227C58.1285 14.3213 58.0353 14.432 58.0315 14.5458C58.0267 14.6891 58.164 14.8372 58.4743 15.1718L58.5231 15.2245C59.5998 16.4012 59.894 16.6898 60.0105 16.6898C60.0716 16.6898 60.3436 16.5399 60.61 16.3568C60.8819 16.1736 61.1372 16.0237 61.1761 16.0237C61.2594 16.0237 61.4425 16.218 61.5369 16.4012C61.5924 16.5066 61.5924 16.5566 61.5203 16.662C61.4369 16.7897 60.5767 17.4558 60.1937 17.6833C59.9995 17.7998 59.9773 17.8054 59.8497 17.7222C59.7775 17.6722 59.4611 17.317 59.1448 16.9284C58.673 16.3401 57.8072 15.2911 57.0801 14.4308L56.9302 14.2531L58.2456 12.9044C59.6332 11.4835 60.0994 10.9619 60.0994 10.8341C60.0994 10.5899 57.7295 8.5252 55.8369 7.12096C55.2041 6.64919 54.0109 5.86659 53.9275 5.86659C53.8777 5.86659 53.0895 7.07102 52.3236 8.30319L51.6964 9.32446L51.8296 9.41327C51.9018 9.46322 52.4568 9.8684 53.0617 10.318C53.6667 10.7731 54.1884 11.1394 54.2106 11.1394C54.2384 11.1394 54.4493 10.9063 54.6824 10.6177C55.2319 9.94055 55.3595 9.89059 55.6537 10.2291C55.848 10.4456 55.8424 10.54 55.6426 10.8341C55.4484 11.1116 54.5992 12.1662 54.5492 12.1829C54.527 12.194 54.1107 11.8943 53.6278 11.5224C53.1395 11.1505 52.3181 10.5622 51.7907 10.2126C51.2635 9.86284 50.8194 9.56313 50.8083 9.53537C50.7917 9.51317 50.8639 9.30226 50.9638 9.06914C51.1469 8.65841 51.2857 8.39755 52.4624 6.32727C52.9174 5.52246 52.9952 5.35595 52.9396 5.2838C52.6011 4.87863 46.3959 2.14785 45.8077 2.14785C45.6634 2.14785 45.5745 2.32546 45.2526 3.28567C44.7809 4.69546 44.4145 6.02755 44.4867 6.0886C44.6421 6.23291 47.1897 7.11542 47.3062 7.06546C47.3562 7.04881 47.5171 6.77684 47.6669 6.46048C48.0111 5.73338 48.0333 5.71117 48.3552 5.86103C48.4884 5.92764 48.6272 6.01645 48.6604 6.0553C48.7326 6.1441 48.6604 6.35502 48.2164 7.34853L47.9333 7.96462L47.5393 7.85362C46.8844 7.676 43.632 6.58813 43.5321 6.51598C43.4266 6.43272 43.4266 6.41607 44.1426 3.71304C44.5477 2.18115 44.6199 1.85368 44.5533 1.80928C44.1037 1.52621 40.6127 0.921215 38.5091 0.765806C37.0161 0.654798 36.6776 0.638147 36.6776 0.688101C36.6776 0.701365 36.6637 0.918713 36.6431 1.24188L36.643 1.24249L36.643 1.24302C36.6291 1.46053 36.6122 1.72584 36.5943 2.00908C36.5499 2.70843 36.5111 3.61314 36.5111 4.01277V4.74542L36.6943 4.77317C36.8607 4.80646 37.4823 4.86197 38.9254 4.97298C39.264 5.00073 39.5526 5.00628 39.5692 4.98407C39.5914 4.96743 39.6469 4.70656 39.6969 4.40684C39.7468 4.10713 39.8135 3.81295 39.8467 3.7519C39.9133 3.61869 40.1132 3.53543 40.3629 3.53543C40.7181 3.53543 40.7403 3.68529 40.5405 4.76206C40.4683 5.15059 40.374 5.53911 40.3296 5.62237C40.2408 5.80553 40.1797 5.81109 39.3639 5.71673C39.0864 5.67788 38.1705 5.60571 37.3269 5.55021L35.7951 5.45031L35.7673 5.17279C35.7507 5.02293 35.723 4.33468 35.7063 3.64644ZM29.5454 2.0865C30.4889 1.90334 31.6489 1.77013 33.8745 1.57587C33.9967 1.56477 34.1742 1.55367 34.2686 1.54811L34.4407 1.53702L34.4795 3.46299C34.5239 5.45556 34.5628 6.04945 34.6626 6.14936C34.7625 6.24927 35.6728 6.36027 37.3989 6.47683C39.2471 6.59894 39.8909 6.65999 40.6347 6.78765C40.9011 6.83205 41.1452 6.85426 41.173 6.83761C41.2618 6.7821 41.8834 3.80156 41.9057 3.28538L41.9223 3.00785L41.5615 2.88575C41.0343 2.71369 39.5745 2.50278 39.0528 2.53053C38.853 2.53608 38.7976 2.65263 38.6977 3.24652C38.5588 4.05688 38.4867 4.14013 38.026 3.97917C37.7541 3.87927 37.7042 3.71276 37.7152 2.95791C37.7374 1.82563 37.8706 1.55921 38.3702 1.62027C39.8021 1.79788 42.3275 2.19196 42.9102 2.33071L43.1822 2.39177L43.1489 2.64153C43.1211 2.84135 42.4884 5.78859 42.2886 6.66555C42.2608 6.7821 42.2498 6.90976 42.2664 6.95416C42.2997 7.04852 42.6605 7.22058 43.1433 7.36489C44.3976 7.74231 45.6853 8.18634 46.8286 8.64147C47.5446 8.92454 48.2052 9.15765 48.2995 9.16321C48.4549 9.16876 48.4882 9.13546 48.799 8.55822C48.9766 8.21965 49.3595 7.45925 49.6481 6.86536L50.1699 5.78304L50.0423 5.67758C49.7425 5.43337 47.3449 4.38435 47.2727 4.4676C47.256 4.4898 47.145 4.74512 47.0285 5.03374C46.9175 5.32236 46.7621 5.62208 46.6899 5.69423C46.5678 5.82188 46.5567 5.82744 46.2292 5.75529L46.2078 5.75083C45.9774 5.70288 45.8525 5.67689 45.8039 5.60163C45.7464 5.5126 45.7956 5.35459 45.9031 5.00964L45.9129 4.97823C46.196 4.04577 46.3902 3.5962 46.5345 3.49629C46.6899 3.39638 46.7066 3.40194 48.1663 3.98473C49.4039 4.47316 51.1634 5.28905 51.4576 5.50552C51.5574 5.57767 51.4963 5.69978 50.5251 7.487C49.9534 8.53601 49.4373 9.47403 49.3762 9.56839L49.2707 9.75154L49.526 9.9014C50.7305 10.6229 52.9228 12.1215 54.2271 13.1261L54.7821 13.5535L54.9875 13.3204C55.0411 13.2614 55.206 13.0744 55.4309 12.8192L55.4316 12.8184L55.4323 12.8176C55.673 12.5445 55.9822 12.1937 56.2973 11.8385C56.9078 11.1447 57.4129 10.5619 57.4185 10.5397C57.424 10.5175 56.8635 10.0402 56.1752 9.47958L54.9264 8.46386L54.6711 8.75803C54.2104 9.29641 53.8441 9.64054 53.7387 9.64054C53.5833 9.64054 53.2169 9.31862 53.2169 9.18541C53.2169 8.9634 53.7719 8.11419 54.3658 7.4315L54.5212 7.25388L54.8265 7.49255C54.993 7.62576 55.6424 8.13084 56.2696 8.61372C56.8967 9.09661 57.696 9.7349 58.04 10.0235C58.3897 10.3177 58.7006 10.5729 58.7338 10.5952C58.7616 10.6174 58.5507 10.8893 58.2565 11.2057C58.1581 11.3115 58.0083 11.4719 57.8292 11.6636C57.4725 12.0453 56.9997 12.5514 56.5859 12.9985L55.4482 14.214L56.1197 14.9245C57.6627 16.5452 58.3342 17.3111 58.9781 18.2047C59.5553 19.004 59.7106 19.1871 59.805 19.1871C60.127 19.1871 63.0408 17.1224 63.0408 16.8893C63.0408 16.7395 61.4035 14.6803 61.2314 14.6136C61.1149 14.5693 61.0038 14.6359 60.4821 15.0577C60.238 15.252 60.0214 15.4129 59.9937 15.4129C59.9716 15.4129 59.7939 15.252 59.6052 15.0521C59.2999 14.7357 59.2667 14.6747 59.3277 14.6025C59.4664 14.436 60.7041 13.4203 60.8762 13.3315C60.9706 13.2816 61.0982 13.2593 61.1592 13.276C61.4145 13.3593 63.1851 15.6793 64.0843 17.1168L64.3729 17.5775L64.2452 17.6553C64.2023 17.6803 63.9934 17.8068 63.7151 17.9752L63.7145 17.9756L63.7112 17.9776C63.5586 18.0699 63.3854 18.1748 63.2073 18.2824C62.7022 18.5877 61.853 19.115 61.3147 19.4646L60.3378 20.0918L61.3202 22.04C61.8863 23.1613 62.4636 24.3934 62.6801 24.9429C62.8854 25.4702 63.0908 25.9309 63.1295 25.9642C63.2351 26.0474 63.7568 25.9197 65.0389 25.4813C66.2044 25.0872 66.8038 24.8318 66.8482 24.7153C66.9315 24.5044 66.0435 22.3009 65.7659 22.0234C65.6105 21.868 65.5661 21.8791 64.5005 22.3286L64.3229 22.4064L64.1564 22.1067C63.9511 21.7514 63.9399 21.6182 64.1119 21.4628C64.2341 21.3407 65.9768 20.4415 66.0101 20.4749C66.0657 20.5303 66.6872 21.9679 67.0536 22.8781C67.5531 24.1436 67.8695 25.1093 67.8695 25.3758C67.8695 25.5589 67.8472 25.5811 67.6253 25.6811C67.4921 25.7366 66.7261 25.9863 65.9269 26.2361C65.1276 26.4859 64.2562 26.78 63.9898 26.891C63.9385 26.9134 63.892 26.9323 63.8502 26.9493C63.7244 27.0004 63.6401 27.0346 63.5927 27.0969C63.4966 27.2232 63.5522 27.465 63.7206 28.1972C63.7497 28.3238 63.7822 28.465 63.8179 28.6228C64.1452 30.077 64.2784 30.8485 64.4727 32.397L64.6226 33.5903L65.0944 33.5737C66.21 33.5293 68.0804 33.396 68.269 33.3406C68.5354 33.2628 68.6464 33.1019 68.6464 32.7911C68.6464 32.3527 68.4189 30.6264 68.3357 30.4266C68.2247 30.1546 68.0803 30.1103 67.5143 30.188C67.2533 30.2213 66.987 30.2324 66.9093 30.2102C66.7594 30.1768 66.6596 29.9881 66.6096 29.6496L66.5762 29.4109L66.9536 29.2943C67.4088 29.15 68.3579 28.9557 68.5743 28.9557C68.8907 28.9557 68.9018 28.9891 69.0849 30.2602C69.2181 31.1703 69.5345 33.9289 69.5345 34.162V34.323L68.2746 34.3563C67.0536 34.3896 65.5717 34.4784 64.9168 34.5506L64.6004 34.5894L64.5671 36.0048C64.5282 37.7809 64.334 40.2009 64.1786 40.878C64.1564 40.9778 64.1786 41.0167 64.3007 41.0611C64.778 41.2442 67.159 41.8216 67.8195 41.9159L68.0804 41.9548L68.1414 41.6828C68.2192 41.3553 68.3911 40.1842 68.4856 39.3738C68.5299 38.952 68.5354 38.7577 68.4911 38.7134C68.4633 38.6856 68.1692 38.6467 67.8472 38.63C67.5253 38.6134 67.2201 38.5691 67.1701 38.5357C67.0425 38.4413 67.048 37.7253 67.1812 37.631C67.3089 37.5367 67.8139 37.5421 68.5354 37.6421L68.6785 37.6621C69.2084 37.736 69.3673 37.7581 69.405 37.8377C69.4212 37.8719 69.4152 37.9165 69.4065 37.9803C69.4048 37.9926 69.4031 38.0057 69.4013 38.0195C69.3846 38.1471 69.3292 38.6134 69.2847 39.0574C69.146 40.3452 68.7853 42.4987 68.641 42.8706C68.5743 43.0537 68.38 43.037 66.9536 42.7428C65.05 42.3488 64.3062 42.2156 64.1009 42.2323C64.0788 42.234 64.0602 42.2328 64.0436 42.2317C64.0254 42.2306 64.0098 42.2296 63.9952 42.2328C63.9073 42.252 63.8525 42.4222 63.4694 43.6109L63.4694 43.611C63.4048 43.8112 63.331 44.0403 63.2462 44.3025C62.9963 45.0852 62.4469 46.5505 61.8309 48.0878L61.7143 48.3765L62.4191 48.7317C63.3183 49.1924 64.9556 49.9362 65.1554 49.975C65.2941 50.0027 65.3164 49.9695 65.666 49.2923C66.0768 48.4764 66.4653 47.5439 66.493 47.2998C66.5153 47.111 66.4264 47.0555 65.6494 46.7558C65.1 46.5505 65.05 46.456 65.2886 46.1009C65.5051 45.7678 65.6105 45.7401 66.1156 45.8788C66.6983 46.0398 67.2867 46.2729 67.4643 46.4173L67.6142 46.5338L67.4865 46.9167C67.1979 47.777 66.2987 49.9084 65.7882 50.9519C65.655 51.2183 65.5439 51.3792 65.4884 51.3792C65.4385 51.3792 64.5283 50.9407 63.457 50.408C62.3915 49.8695 61.4367 49.4199 61.348 49.4033C61.187 49.3756 61.1648 49.3977 60.8762 49.8473C59.5442 51.9342 59.2944 52.2895 58.14 53.7548C57.7514 54.2543 57.4351 54.6817 57.4461 54.7039C57.4573 54.726 58.0123 55.2145 58.6839 55.7917C59.3555 56.3634 60.027 56.9462 60.1713 57.085C60.3212 57.2238 60.4599 57.3126 60.4877 57.2848C60.682 57.0905 62.1195 55.1923 62.2027 55.0203C62.3526 54.7261 62.297 54.6206 61.8474 54.3042C61.3924 53.9934 61.2092 53.827 61.2092 53.7326C61.2092 53.616 61.5256 53.2885 61.7087 53.2109C61.8586 53.1498 61.903 53.1609 62.1916 53.3219C62.6745 53.5938 63.1629 53.9491 63.3905 54.2044L63.6013 54.4374L63.5015 54.604C63.1351 55.2312 60.7541 58.2451 60.5266 58.3727C60.3878 58.4504 60.36 58.4448 60.1325 58.3283C59.9992 58.2562 59.2056 57.5678 58.3675 56.7963L56.8524 55.3921L56.5693 55.6474C56.4083 55.7862 55.9754 56.1859 55.5979 56.5355C54.7543 57.307 53.9329 57.9952 52.9116 58.789C52.1069 59.4106 51.7739 59.6992 51.7739 59.7658C51.7739 59.8269 52.6119 61.0869 53.2502 61.9804C53.3286 62.0896 53.3984 62.1873 53.4609 62.2746L53.463 62.2775L53.463 62.2776C53.8804 62.8609 53.9661 62.9808 54.0403 62.974C54.0594 62.9722 54.0778 62.962 54.101 62.9492C54.1121 62.943 54.1243 62.9363 54.1383 62.9295C54.4824 62.7741 56.5471 61.2201 56.597 61.0869C56.6081 61.0535 56.3806 60.7927 56.0975 60.504L55.5758 59.9823L55.9365 59.6215C56.1308 59.4217 56.3195 59.2608 56.3528 59.2663C56.4194 59.2663 57.4185 60.4208 57.5849 60.6983C57.7348 60.9314 57.7459 61.0757 57.6293 61.2477C57.4628 61.4809 53.5888 64.3171 53.5277 64.2505C53.4833 64.1951 51.5352 61.1201 51.2799 60.6927L50.9913 60.2098L48.9821 61.2256C47.8777 61.7862 46.5845 62.3967 46.1016 62.5854C45.6243 62.7741 45.1914 62.9628 45.1358 63.0073C45.036 63.0794 45.036 63.096 45.1303 63.5623C45.319 64.4892 46.0461 66.4595 46.2736 66.6649C46.3625 66.7481 46.3957 66.7481 46.6732 66.6649C47.2449 66.4928 48.971 65.8046 49.0709 65.7047C49.1709 65.6103 49.1653 65.5881 48.9932 65.1108C48.8934 64.8388 48.8045 64.5113 48.7934 64.3837C48.7657 64.1617 48.7713 64.1506 48.9932 64.0396C49.3318 63.862 49.4095 63.8842 49.6316 64.2283C49.9035 64.6335 50.3752 65.577 50.4196 65.7935L50.4218 65.8041C50.4306 65.8451 50.4375 65.8776 50.432 65.9078C50.4108 66.0239 50.2064 66.1065 49.2176 66.5062L49.182 66.5206C47.2505 67.3144 45.985 67.7584 45.5022 67.8194C45.3694 67.8359 45.3579 67.7975 44.8856 66.2154L44.8806 66.1987C44.2533 64.0895 44.0591 63.4624 44.0147 63.4124C43.9925 63.3902 43.7094 63.4346 43.3931 63.5067C41.0232 64.0396 39.7688 64.2672 38.398 64.4004C37.8928 64.4503 37.4766 64.4947 37.471 64.5003C37.4266 64.5391 37.6542 68.1191 37.7152 68.3577L37.7485 68.491L38.6699 68.4577C39.4191 68.4299 40.9066 68.319 40.9288 68.2856C40.9344 68.2856 40.8955 67.9359 40.8455 67.5141C40.7864 66.9823 40.7623 66.765 40.8592 66.6648C40.9262 66.5955 41.0509 66.5821 41.2618 66.5595L41.6004 66.5206L41.6891 66.7426C41.8223 67.0701 42.0055 68.0526 42.0055 68.4188V68.7408L41.6337 68.8295C40.7512 69.0294 36.9493 69.4845 36.866 69.4012C36.7606 69.2958 36.6718 68.2134 36.6385 66.5262L36.6052 64.6612L35.4896 64.5946C33.8301 64.4948 32.4259 64.3781 31.4547 64.256C30.5555 64.1395 30.0338 64.1173 29.9227 64.1895C29.834 64.2449 29.7119 64.7056 29.4622 65.9601C29.1402 67.5863 29.1569 67.9359 29.5676 68.0913C29.7784 68.1746 32.1262 68.5243 32.215 68.491C32.3094 68.4577 32.3371 68.3412 32.3648 67.8083C32.3982 67.17 32.5869 66.9202 33.0308 66.9202C33.3972 66.9202 33.4194 67.0091 33.3694 68.208L33.3306 69.157L32.1872 69.1237C30.8219 69.0849 29.1791 68.874 28.352 68.6242L28.1023 68.552L28.0856 68.2634C28.0634 67.9027 28.1412 67.4808 28.6019 65.4771C28.8738 64.2838 28.9404 63.8898 28.8905 63.8565C28.8572 63.8287 28.613 63.7455 28.352 63.6733C26.6426 63.1627 24.639 62.4466 23.2625 61.8527L22.8129 61.6585L22.702 61.7751C22.4022 62.097 21.0647 64.628 20.9925 65.0109C20.9647 65.1663 20.9814 65.1941 21.2312 65.3551C21.5864 65.5826 23.1238 66.3485 23.4901 66.4817C23.7676 66.5816 23.7732 66.5817 23.8675 66.4706C23.9175 66.4096 24.0507 66.1266 24.1617 65.8379C24.2727 65.5493 24.4003 65.2884 24.4447 65.2496C24.5224 65.183 24.9165 65.2163 25.1663 65.3106C25.2884 65.3606 25.2884 65.3662 25.2162 65.6825C25.1163 66.1155 24.7611 67.17 24.6224 67.4364C24.5335 67.6141 24.4947 67.6417 24.3948 67.614C24.0784 67.5197 21.2644 66.3263 20.2821 65.8712L19.7881 65.6437L19.8214 65.3939C19.838 65.2108 20.1266 64.5835 20.8371 63.1737C21.7029 61.4531 21.8195 61.1978 21.7473 61.1312C21.7029 61.0869 21.3144 60.8426 20.8871 60.5928C19.2497 59.616 18.6059 59.1664 17.1573 57.9731C16.4969 57.4291 16.3359 57.3237 16.2859 57.3848C14.31 59.5827 13.8106 60.2044 13.8106 60.4652C13.8106 60.5262 14.2157 60.8926 14.8928 61.4476C15.4867 61.9305 16.0195 62.3634 16.0806 62.4078C16.186 62.4799 16.2194 62.4466 16.5967 61.9305C17.0852 61.2588 17.1795 61.1978 17.4515 61.3421C17.5625 61.4031 17.6957 61.5087 17.7567 61.5808C17.8511 61.7029 17.8511 61.7306 17.7734 61.9138C17.729 62.0248 17.457 62.4744 17.1629 62.9129L16.6356 63.7066L16.3748 63.5123C16.2305 63.4013 15.8031 63.0905 15.4201 62.8185C15.0371 62.5466 14.5266 62.158 14.2823 61.9527C13.5719 61.3588 12.362 60.2487 12.3786 60.2044C12.3897 60.1821 13.0002 59.5327 13.7384 58.7556C14.471 57.9787 15.1759 57.2238 15.3035 57.0739C15.4429 56.8997 15.4948 56.8348 15.4908 56.7736C15.4884 56.7373 15.4664 56.7023 15.4312 56.6465C15.3813 56.5633 14.9595 56.0748 14.5043 55.5642C13.4165 54.3542 12.8393 53.6549 12.0178 52.5614C11.646 52.0674 11.3185 51.6623 11.2963 51.6623C11.263 51.6567 10.1475 52.3949 8.01615 53.8324C7.98285 53.8547 8.04946 53.999 8.17156 54.1933C8.48792 54.6762 9.61461 56.1581 9.78112 56.3135L9.92543 56.4523L10.3861 56.1359C11.0022 55.7196 11.1298 55.6752 11.3074 55.8084C11.535 55.9805 11.6626 56.1803 11.6182 56.3135C11.5683 56.48 10.9022 57.1349 10.4083 57.5124L10.0087 57.8177L9.85327 57.6401C9.20945 56.8963 7.63319 54.7316 7.16698 53.9546C6.92832 53.5549 6.88946 53.4551 6.94497 53.3884C7.07262 53.2331 7.56659 52.9 8.73213 52.1841C9.37595 51.7899 10.103 51.3348 10.3583 51.1738L10.819 50.8742L10.658 50.5855C9.82552 49.1146 9.15394 47.7604 8.53787 46.3284C8.34917 45.8844 8.11606 45.3903 8.02725 45.2295L7.86075 44.9353L7.62764 44.9741C7.04487 45.0685 4.55839 45.9566 4.31418 46.1563L4.19207 46.2507L4.45848 47.0277C4.73044 47.8214 5.0912 48.6928 5.23551 48.9205C5.33541 49.0759 5.49082 49.0537 6.07359 48.8149C6.63415 48.5874 6.75071 48.5874 6.91167 48.8205C7.08927 49.087 7.07817 49.2701 6.86171 49.4699C6.61751 49.6974 6.37884 49.8362 5.72392 50.1305C5.30766 50.3191 5.16891 50.358 5.10785 50.3135C4.94689 50.1803 4.47513 49.098 3.87016 47.5106C3.38174 46.2174 3.23189 45.6901 3.31514 45.5181C3.41504 45.3016 3.64815 45.2073 6.15684 44.4191C7.06707 44.136 7.31683 43.9973 7.41119 43.7198C7.49444 43.481 7.46669 43.2035 7.25578 42.1934C6.94497 40.7114 6.71186 39.3516 6.60086 38.3692C6.53425 37.8197 6.4732 37.3646 6.4621 37.3479C6.40105 37.2924 2.54367 37.5977 2.47151 37.6643C2.4049 37.7309 2.68796 40.3895 2.79898 40.7448C2.82673 40.8335 2.87112 40.8446 3.17638 40.8113C4.28087 40.6948 4.30308 40.6948 4.39187 40.8391C4.44183 40.9113 4.49733 41.0999 4.51953 41.2553L4.55283 41.5384L4.11437 41.6606C3.87571 41.7216 3.4206 41.816 3.10423 41.8714C2.32165 41.9991 2.27171 41.9714 2.14405 41.3331C2.01084 40.6837 1.79438 39.0131 1.67228 37.792C1.59457 36.9705 1.58903 36.7652 1.65008 36.7318C1.68893 36.7096 2.11075 36.6707 2.58806 36.6485C3.59265 36.6042 5.65178 36.4654 6.08469 36.4155C6.33445 36.3877 6.38995 36.3544 6.43434 36.2434C6.46209 36.1657 6.51205 35.3887 6.5398 34.5117C6.56755 33.6125 6.65636 32.2582 6.74516 31.3813C6.86726 30.127 6.88392 29.8272 6.82286 29.7939C6.69521 29.7106 4.60833 29.2666 3.30404 29.0446C3.04973 28.9948 3.04873 29.0002 2.85675 30.0314L2.85448 30.0436C2.54367 31.7587 2.53811 32.1139 2.81007 32.2527C2.89333 32.2916 3.15973 32.3415 3.40394 32.3637C3.93676 32.4137 4.04221 32.4859 4.04221 32.8077C4.04221 32.9354 4.02002 33.0686 3.99226 33.1074C3.91456 33.2352 3.5427 33.285 2.61581 33.285H1.71113V32.9853C1.71113 32.4025 2.3494 28.0788 2.46596 27.8957C2.50481 27.8291 2.61581 27.8457 4.12547 28.1899C6.58976 28.7449 6.79511 28.7893 6.93942 28.7893C7.06707 28.7893 7.10038 28.7449 7.25023 28.3841C7.34458 28.1677 7.47223 27.7846 7.53884 27.5404C7.72754 26.8689 8.12716 25.7477 8.75433 24.177C9.0596 23.3999 9.3149 22.7338 9.3149 22.7006C9.3149 22.5784 8.92083 22.3009 8.28256 21.979C7.61654 21.6404 5.85713 20.8522 5.76832 20.8522C5.71837 20.8522 4.90805 22.7061 4.70268 23.3056C4.69275 23.3334 4.68318 23.3593 4.67421 23.3835C4.62999 23.5032 4.60057 23.5828 4.61632 23.6521C4.64761 23.79 4.85736 23.8874 5.48408 24.1782L5.4841 24.1782C5.55007 24.2088 5.62067 24.2416 5.69617 24.2768C6.02918 24.4322 6.04028 24.6432 5.73503 25.0039C5.63512 25.1205 5.53522 25.1816 5.44086 25.1816C5.2577 25.1816 3.92566 24.7264 3.73695 24.6043C3.5427 24.4767 3.55379 24.2546 3.81466 23.4775C4.09216 22.6339 4.43073 21.8568 5.0468 20.6247C5.39091 19.9364 5.56851 19.6311 5.63512 19.6311C5.68507 19.6311 6.4399 19.9975 7.31128 20.4471C9.64236 21.6515 9.75337 21.7014 9.84772 21.6238C9.89212 21.5904 10.1918 21.1409 10.5137 20.6247C11.2353 19.4702 11.8403 18.6043 12.7504 17.4166L12.9504 17.153L12.9506 17.1528L12.9509 17.1524C13.2448 16.7651 13.476 16.4605 13.4942 16.4286C13.5719 16.3065 13.3888 16.0512 12.867 15.5628C12.3953 15.1188 11.1797 14.0975 10.769 13.7978L10.5804 13.6646L10.2696 13.9975C9.87547 14.4194 9.27605 15.1576 8.94304 15.646C8.62112 16.1122 8.63777 16.2011 9.10399 16.5285C9.56466 16.8504 9.70341 17.0059 9.70341 17.2001C9.70341 17.4221 9.437 17.6885 9.215 17.6885C8.95969 17.6885 7.42784 16.7117 7.42784 16.5507C7.42784 16.3232 8.64887 14.6914 10.264 12.7654L10.6914 12.2547L11.7958 13.2649C12.2685 13.6986 12.7989 14.1798 13.1247 14.4753L13.1252 14.4758L13.126 14.4765L13.1264 14.4769L13.128 14.4783C13.2176 14.5597 13.2916 14.6268 13.3443 14.6747C13.8106 15.091 14.3323 15.4684 14.4432 15.4684C14.4766 15.4684 14.5377 15.3963 14.5764 15.3075C14.7096 15.0133 17.4016 12.671 18.6559 11.7663C19.0111 11.5054 19.3052 11.2613 19.3052 11.2168C19.3052 11.1336 17.9898 9.15765 17.507 8.51382C17.3238 8.26959 17.1462 8.06423 17.1019 8.04758C17.0574 8.03094 16.902 8.09198 16.7522 8.18634C16.5135 8.3362 14.6875 9.64608 14.5709 9.75154C14.5432 9.77375 14.7096 10.0513 14.9428 10.3621C15.1759 10.6729 15.3646 10.9726 15.3646 11.0336C15.3646 11.0947 15.2536 11.2613 15.1204 11.4056C14.8984 11.6386 14.8651 11.6553 14.743 11.5999C14.5987 11.5332 13.694 10.5175 13.4442 10.1456C13.3277 9.96806 13.3166 9.9125 13.3721 9.82369C13.4775 9.66274 13.9882 9.23536 14.8928 8.55822C16.4025 7.42594 17.5458 6.68775 17.6402 6.78765C17.668 6.8154 18.1563 7.5758 18.7336 8.47497C19.0081 8.9026 19.2726 9.31518 19.4823 9.64224L19.4823 9.64232L19.4833 9.64392C19.7139 10.0037 19.878 10.2596 19.9158 10.3177C19.9935 10.4342 20.0989 10.5286 20.1544 10.5286C20.3209 10.5286 21.0924 10.1845 22.6076 9.43518C23.4013 9.0411 24.4059 8.57487 24.8443 8.39726C25.2773 8.21409 25.7491 7.99763 25.8823 7.91437L26.1264 7.75897L26.021 7.38154C25.8156 6.64334 25.1496 4.78398 24.9553 4.40655C24.8499 4.20119 24.8388 4.19009 24.6445 4.22894C24.0784 4.32884 21.9804 5.10034 21.8972 5.2391C21.8805 5.26685 21.9749 5.54992 22.1136 5.86074C22.2468 6.17712 22.3579 6.47683 22.3579 6.52679C22.3579 6.64334 22.1192 6.87645 21.8639 7.00412C21.6751 7.09847 21.6696 7.09847 21.5864 6.99302C21.4476 6.82651 20.826 5.64983 20.6983 5.32791L20.5818 5.03374L20.9592 4.84502C22.0693 4.28999 25.1274 3.09112 25.4438 3.09112C25.577 3.09112 25.7268 3.28538 25.8545 3.62395C25.921 3.80712 26.2096 4.73957 26.4983 5.69978C26.6064 6.05932 26.7082 6.39862 26.794 6.68419L26.7948 6.68704L26.7949 6.68728L26.7957 6.6901C26.938 7.16398 27.0353 7.48845 27.0423 7.5092C27.0588 7.55361 27.3974 7.49255 28.0856 7.32604C29.3344 7.03187 30.8275 6.7488 32.1817 6.56009C32.7478 6.48238 33.2918 6.40468 33.3917 6.38802L33.5693 6.36027V5.59987C33.5693 4.81727 33.4416 3.17437 33.3528 2.79139L33.3436 2.75354C33.3195 2.65419 33.3022 2.58246 33.259 2.53345C33.1469 2.40616 32.8608 2.43213 31.8315 2.52555L31.7155 2.53608C30.9329 2.60823 30.2669 2.68594 30.2336 2.70814C30.1891 2.73589 30.1891 2.89685 30.2391 3.31867C30.2725 3.63505 30.2947 4.00692 30.2836 4.14569L30.2669 4.39545L29.9949 4.4121C29.6175 4.4343 29.4787 4.3899 29.3844 4.21228C29.2734 3.99582 29.0569 2.89685 29.0513 2.50832L29.0458 2.18085L29.5454 2.0865ZM47.972 9.96806C44.875 8.46386 41.7613 7.5869 38.2314 7.22613C37.1824 7.12068 34.7015 7.07627 33.6803 7.14843C30.9773 7.33159 28.0357 7.94768 25.8823 8.78023C23.862 9.55728 21.2811 10.8561 19.8436 11.8107C14.2602 15.535 10.1807 21.0854 8.31031 27.5071C5.97924 35.4996 7.30573 44.2137 11.9013 51.1573C13.5664 53.6771 17.0852 57.2349 19.555 58.9055C25.2328 62.7463 32.376 64.5002 38.8697 63.6399C44.714 62.8684 49.7758 60.6428 53.994 56.9906C59.4277 52.2839 62.7855 46.0898 63.6513 39.1685C63.9511 36.8039 63.9455 33.8401 63.6513 31.6477C62.5579 23.572 58.0013 16.2954 51.2466 11.8329C50.0201 11.0225 49.3263 10.6285 47.972 9.96806ZM30.3388 12.8189H40.0819V18.915H45.4234C45.1599 19.442 44.9558 20.0085 44.8108 20.6146C44.6791 21.2074 44.5802 21.7609 44.5144 22.2747C44.4485 22.7885 44.409 23.2233 44.3958 23.579C44.3826 23.9348 44.376 24.139 44.376 24.1916L43.6844 24.3102C43.4999 23.4275 43.1639 22.7094 42.6765 22.1561C42.1889 21.6028 41.6158 21.1746 40.9571 20.8715C40.6739 20.7355 40.3821 20.6191 40.0819 20.5221V34.4684H42.874C42.5974 35.0217 42.3866 35.6014 42.2417 36.2075C42.0967 36.8136 41.9914 37.3801 41.9254 37.9071C41.8464 38.5263 41.8003 39.1324 41.7871 39.7253L41.135 39.8438C40.9901 39.1324 40.8188 38.5395 40.6211 38.0652C40.4789 37.7144 40.2991 37.408 40.0819 37.1459V47.6613H54.4495C53.9487 48.1487 53.5271 48.7153 53.1846 49.3609C52.842 50.0065 52.5654 50.6258 52.3545 51.2187C52.1174 51.9169 51.9263 52.6218 51.7815 53.3333L50.8526 53.5309C50.9185 53.2938 50.958 53.0566 50.9711 52.8195C50.9975 52.5823 51.0107 52.3649 51.0107 52.1672C51.0107 51.2977 50.734 50.6521 50.1807 50.2304C49.6405 49.8088 48.8631 49.519 47.8486 49.3609C46.8341 49.216 45.5957 49.1567 44.1332 49.1831C42.6708 49.1962 41.0239 49.2028 39.1925 49.2028H30.3388V48.4715C31.0371 48.4715 31.6102 48.4057 32.0581 48.274C32.5061 48.129 32.8619 47.938 33.1254 47.7009C33.3889 47.4505 33.5667 47.1672 33.6589 46.851C33.7643 46.5347 33.817 46.1988 33.817 45.8431V35.6136C32.7682 35.6011 31.5382 35.5948 30.1271 35.5948V49.4881C30.1271 49.778 30.0151 50.1008 29.7912 50.4566C29.5672 50.8254 29.2773 51.2273 28.9216 51.6621C28.5658 52.0969 28.1574 52.558 27.6963 53.0454C27.2483 53.5461 26.7938 54.0665 26.3327 54.6068C25.8715 55.1601 25.4236 55.7332 24.9888 56.3261C24.554 56.9322 24.1785 57.5514 23.8623 58.1839V22.2351C23.8623 21.9716 23.8097 21.6884 23.7042 21.3853C23.612 21.0823 23.4341 20.8056 23.1706 20.5553C22.9203 20.2917 22.5711 20.0744 22.1233 19.9031C21.6753 19.7318 21.0956 19.6462 20.3841 19.6462V18.915H33.817V16.1391C33.817 15.8756 33.7643 15.5923 33.6589 15.2893C33.5667 14.9862 33.3889 14.7095 33.1254 14.4592C32.8751 14.1958 32.5259 13.9783 32.0779 13.807C31.6299 13.6358 31.0503 13.5501 30.3388 13.5501V12.8189ZM33.817 20.0612H30.1271V34.4684H33.817V20.0612Z" fill="#D3C485"/>
</svg>
