<svg width="81" height="29" viewBox="0 0 81 29" fill="none" xmlns="http://www.w3.org/2000/svg">
<path fill-rule="evenodd" clip-rule="evenodd" d="M58.1039 5.71048L56.8748 3.75016C57.5414 3.15356 58.2845 2.63505 59.1039 2.19471C59.9234 1.75433 60.7845 1.38501 61.6872 1.08671C62.6039 0.788409 63.5413 0.554019 64.4997 0.38354C65.4581 0.19888 66.4094 0.0710202 67.3539 0L67.583 2.59954C66.9997 2.64216 66.3956 2.71318 65.7706 2.81264C65.1595 2.89788 64.5553 3.01859 63.9581 3.17485C63.3747 3.31693 62.8122 3.48737 62.2706 3.68625C61.7289 3.87091 61.2497 4.09112 60.8331 4.3468V8.92799H64.7497V11.5489H60.8331V28.5738H58.1039V5.71048ZM12.7291 4.49595H3.85415V11.6767H9.39577V14.468H3.85415V28.5738H0.854167V4.49595L0 1.68331H12.7291V4.49595ZM18.9374 1.68331V4.96473H15.8749V1.68331H18.9374ZM18.7708 8.92795V28.5738H16.0416V11.6767L15.1874 8.92795H18.7708ZM26.2915 8.92799V3.70758H22.7083L23.5624 6.45627V18.41C23.5624 18.964 23.5763 19.518 23.6041 20.072C23.6458 20.626 23.7221 21.1871 23.8333 21.7553C23.9582 22.3093 24.1319 22.8633 24.3541 23.4173C24.5762 23.9713 24.8819 24.5253 25.2707 25.0793C25.5346 25.4628 25.8402 25.8393 26.1874 26.2086C26.5485 26.578 26.9235 26.9331 27.3123 27.274C27.7151 27.615 28.1318 27.9346 28.5624 28.2329C28.9929 28.5169 29.4166 28.7727 29.8332 29L31.4582 26.8265C31.0832 26.5993 30.6874 26.3365 30.2707 26.0382C29.854 25.7256 29.4513 25.3989 29.0624 25.058C28.6874 24.7029 28.3332 24.3478 27.9999 23.9927C27.6804 23.6375 27.4235 23.2894 27.229 22.9486C26.7985 22.1814 26.5346 21.393 26.4374 20.5833C26.3402 19.7594 26.2915 18.9853 26.2915 18.2608V11.6341H30.3332V8.92799H26.2915ZM34.7915 1.68331H37.7915V25.7824H47.0415V28.5738H34.7915V1.68331ZM53.1456 4.96473V1.68331H50.0831V4.96473H53.1456ZM52.979 28.5738V8.92795H49.3956L50.2498 11.6767V28.5738H52.979ZM77.9999 15.8956C78.0139 16.265 78.0201 16.6059 78.0201 16.9184H70.5622V15.8956C70.5761 15.5263 70.6039 15.1499 70.6455 14.7663C70.6872 14.3686 70.7566 13.9851 70.8539 13.6157C70.965 13.2463 71.1178 12.9055 71.3122 12.5929C71.4094 12.4509 71.5344 12.2946 71.6872 12.1241C71.8538 11.9537 72.0553 11.7974 72.2913 11.6554C72.5414 11.4991 72.8261 11.3713 73.1455 11.2719C73.4789 11.1724 73.8539 11.1227 74.2705 11.1227C74.7011 11.1227 75.083 11.1724 75.4163 11.2719C75.7496 11.3713 76.0344 11.4991 76.2705 11.6554C76.5067 11.7974 76.7011 11.9537 76.8539 12.1241C77.0205 12.2946 77.1525 12.4509 77.2496 12.5929C77.4441 12.8912 77.5899 13.2322 77.6872 13.6157C77.7983 13.9851 77.8745 14.3615 77.9166 14.745C77.9718 15.1286 77.9999 15.5121 77.9999 15.8956ZM70.5622 25.2497V19.5392H81V17.0037C81 16.6059 80.993 16.1371 80.979 15.5973C80.979 15.0576 80.9229 14.4964 80.8124 13.914C80.715 13.3174 80.5484 12.7208 80.3125 12.1241C80.0758 11.5134 79.7355 10.9451 79.2917 10.4196C78.9163 9.97915 78.5138 9.63112 78.0832 9.37548C77.6663 9.11976 77.2427 8.92799 76.8122 8.80013C76.3816 8.67227 75.958 8.59422 75.5414 8.56574C75.1247 8.52316 74.7427 8.50183 74.3955 8.50183C74.0344 8.50183 73.6455 8.52316 73.2288 8.56574C72.8261 8.59422 72.4094 8.67227 71.9789 8.80013C71.5483 8.92799 71.1178 9.11976 70.6872 9.37548C70.2705 9.63112 69.8677 9.97915 69.4789 10.4196C69.09 10.8741 68.7844 11.3571 68.5622 11.8685C68.34 12.3656 68.1733 12.877 68.0622 13.4026C67.965 13.914 67.9025 14.4183 67.8747 14.9155C67.8469 15.3985 67.833 15.8459 67.833 16.2579V24.1204L66.3747 25.9103C67.4997 26.9331 68.7497 27.7073 70.1247 28.2329C71.4997 28.7442 73.0969 29 74.9163 29C76.0969 29 77.1872 28.8863 78.1875 28.659C79.1873 28.4317 80.1248 28.0553 81 27.5298V24.6106C80.0828 25.2497 79.1312 25.7115 78.1455 25.9955C77.1733 26.2654 76.0761 26.4004 74.8538 26.4004C74.1872 26.4004 73.4719 26.3223 72.708 26.166C71.9442 26.0098 71.2289 25.7043 70.5622 25.2497Z" fill="#D3C485"/>
</svg>
