<svg width="63" height="33" viewBox="0 0 63 33" fill="none" xmlns="http://www.w3.org/2000/svg">
<path fill-rule="evenodd" clip-rule="evenodd" d="M30 29.1957V25.6568H14.6445V14.5094H21.8787V10.9705H11.1158V29.1957H30ZM30 0H0V32.8938L3.70525 33V3.71582H29.1126V21.941H18.3498V18.4021H25.5839V7.25469H7.23406L7.26936 20.0831L7.32227 32.9116L23.7842 32.9646L33 32.9844V32.9798L33.7053 33V3.71582H59.1126V21.941H48.3498V18.4021H55.5839V7.25469H37.2341L37.2694 20.0831L37.3223 32.9116L53.7842 32.9646L63 32.9844V29.1957H41.1158V10.9705H51.8787V14.5094H44.6445V25.6568H62.9943V0H32.9943H30Z" fill="#D4C486"/>
</svg>
