<svg width="22" height="23" viewBox="0 0 22 23" fill="none" xmlns="http://www.w3.org/2000/svg">
<path d="M21.9447 12.7962L20.5033 9.98198C20.379 9.73926 20.0818 9.633 19.8254 9.73946L18.3596 10.3486C18.1815 9.9811 17.8028 9.75631 17.3704 9.77572C16.8794 9.79866 16.4867 10.1294 16.3932 10.5989C16.3362 10.8853 16.2986 11.2004 16.2623 11.505C16.1939 12.0782 16.1164 12.7279 15.9075 13.0532C15.6757 13.4139 15.5789 13.8478 15.5566 14.2787C14.7116 15.1313 13.2404 15.434 12.4542 15.3183C12.0909 15.2648 11.6044 15.1669 11.0895 15.0632C10.7022 14.9852 10.2857 14.9015 9.85969 14.8236C10.8576 13.1482 10.8533 11.043 9.7889 9.35562L9.44446 8.80976C9.4743 8.76296 9.50409 8.71616 9.53446 8.66889C10.5247 7.12676 10.8836 5.29281 10.5451 3.50509C10.5314 3.43299 10.5083 3.34646 10.4744 3.24066C9.89001 1.41941 8.17191 0.135667 6.1991 0.0461579L5.29047 0.00493682C3.32651 -0.0838037 1.49682 1.03086 0.736248 2.7794C-0.0534309 4.59487 0.0733135 6.6658 1.06816 8.36068C0.614241 9.14926 0.121843 10.4304 0.0192576 12.3633C-0.120382 14.9934 0.499918 18.134 1.86295 21.6978C1.86805 21.7111 1.87374 21.7243 1.88 21.7373C2.13496 22.2643 2.60462 22.6322 3.27593 22.8308C3.68195 22.9509 4.1364 23 4.60827 23C5.63997 23 6.75461 22.7652 7.62645 22.5243C9.19281 22.0916 10.8471 21.4021 12.165 20.6325C15.217 18.8512 19.2901 16.6879 19.3309 16.6662C19.3991 16.63 19.4582 16.5797 19.504 16.5186L21.8989 13.3264C22.0147 13.1719 22.0324 12.9674 21.9447 12.7962ZM18.723 15.8224C18.0651 16.173 14.4207 18.1217 11.6232 19.7544C9.1666 21.1889 5.34932 22.3737 3.5821 21.8509C3.21077 21.7411 2.96807 21.5667 2.84095 21.3182C0.258062 14.5521 1.00984 10.9221 1.77052 9.27958C1.876 9.40851 1.97817 9.54063 2.07501 9.67509C2.24181 9.9067 2.57004 9.96288 2.80811 9.8006C3.04618 9.63833 3.10392 9.31901 2.93712 9.0874C2.76916 8.85426 2.58804 8.62634 2.39872 8.40999C2.18618 8.16707 2.10186 8.04766 2.07054 7.99809C1.15759 6.55392 1.02116 4.75227 1.70568 3.17855C2.29529 1.82312 3.71695 0.958706 5.24142 1.02804L6.15005 1.06926C7.68251 1.1388 9.01643 2.13404 9.46946 3.5458C9.49788 3.63439 9.50704 3.67633 9.50972 3.69046C9.80058 5.22624 9.4923 6.80155 8.64167 8.12626C8.29012 8.67365 7.97137 9.19232 7.69414 9.66777C7.55071 9.91377 7.6394 10.2263 7.89226 10.3658C7.97426 10.4111 8.06348 10.4326 8.15148 10.4326C8.33481 10.4326 8.51288 10.3393 8.60983 10.1731C8.68115 10.0508 8.75552 9.92529 8.83242 9.79722L8.89179 9.89134C9.82369 11.3686 9.74948 13.2419 8.72978 14.6407C8.13517 14.5596 7.5544 14.5096 7.03958 14.523C6.74898 14.5305 6.5197 14.7658 6.52744 15.0485C6.53518 15.3312 6.77793 15.5548 7.06763 15.5468C8.15575 15.5181 9.66442 15.8221 10.8761 16.0661C11.4284 16.1773 11.9054 16.2733 12.2968 16.3309C12.4457 16.3529 12.6132 16.3644 12.7942 16.3644C13.6265 16.3644 14.7452 16.1205 15.6609 15.521C15.7371 15.9033 15.8292 16.1845 15.8545 16.2583C15.928 16.4728 16.1331 16.6083 16.3534 16.6083C16.4084 16.6083 16.4644 16.5998 16.5195 16.5821C16.7951 16.493 16.9444 16.2033 16.8533 15.935C16.8519 15.9308 16.7096 15.5087 16.6412 14.9887C16.5604 14.3759 16.6168 13.8813 16.8002 13.596C17.1348 13.075 17.2228 12.3369 17.3079 11.6231C17.342 11.3371 17.3744 11.0663 17.4205 10.826C17.8251 12.2071 17.4535 13.9221 17.4497 13.9394C17.3882 14.2156 17.5684 14.488 17.8523 14.5481C18.1363 14.608 18.4167 14.4329 18.4784 14.1565C18.4841 14.131 18.5296 13.923 18.5739 13.5991L19.5713 12.8582C19.8024 12.6865 19.8467 12.3652 19.6703 12.1404C19.4939 11.9157 19.1636 11.8725 18.9325 12.0442L18.6616 12.2454C18.6588 11.9616 18.6411 11.6631 18.6013 11.3619L19.7826 10.8711L20.8598 12.9743L18.723 15.8224Z" fill="#D3C485"/>
</svg>
