<svg width="22" height="22" viewBox="0 0 22 22" fill="none" xmlns="http://www.w3.org/2000/svg">
<path fill-rule="evenodd" clip-rule="evenodd" d="M16.225 6.41667H18.3333C18.3792 6.41667 18.4479 6.39375 18.5167 6.37083C18.5854 6.34792 18.6542 6.325 18.7 6.325L21.9083 3.11667C22 2.93333 22 2.75 22 2.56667C21.9083 2.38333 21.725 2.29167 21.5417 2.29167H19.7083V0.458333C19.7083 0.275 19.6167 0.0916667 19.4333 0C19.25 0 19.0667 0 18.8833 0.0916667L15.675 3.3C15.675 3.34583 15.6521 3.41458 15.6292 3.48333C15.6062 3.55208 15.5833 3.62083 15.5833 3.66667V5.77501L15.312 6.04638C13.6831 4.56939 11.5252 3.66666 9.16667 3.66666C4.125 3.66666 0 7.79166 0 12.8333C0 17.875 4.125 22 9.16667 22C14.2083 22 18.3333 17.875 18.3333 12.8333C18.3333 10.4748 17.4306 8.3169 15.9536 6.68805L16.225 6.41667ZM18.15 5.5H16.5V3.85L18.7917 1.55833V2.75C18.7917 3.025 18.975 3.20833 19.25 3.20833H20.4417L18.15 5.5ZM9.16667 4.58333C11.2937 4.58333 13.2234 5.37305 14.6807 6.67762L13.0503 8.30806C12.0086 7.41407 10.6527 6.875 9.16666 6.875C5.86666 6.875 3.20833 9.53333 3.20833 12.8333C3.20833 16.1333 5.86666 18.7917 9.16666 18.7917C12.4667 18.7917 15.125 16.1333 15.125 12.8333C15.125 11.3473 14.5859 9.99137 13.6919 8.94973L15.3224 7.31928C16.627 8.77662 17.4167 10.7063 17.4167 12.8333C17.4167 17.4167 13.75 21.0833 9.16667 21.0833C4.58334 21.0833 0.916667 17.4167 0.916667 12.8333C0.916667 8.25 4.58334 4.58333 9.16667 4.58333ZM9.16666 7.79167C10.3811 7.79167 11.5061 8.23857 12.3839 8.97449L10.7775 10.5808C10.3296 10.2656 9.77616 10.0833 9.16668 10.0833C7.60834 10.0833 6.41668 11.275 6.41668 12.8333C6.41668 14.3917 7.60834 15.5833 9.16668 15.5833C10.725 15.5833 11.9167 14.3917 11.9167 12.8333C11.9167 12.2239 11.7344 11.6705 11.4192 11.2225L13.0255 9.61616C13.7614 10.4939 14.2083 11.6189 14.2083 12.8333C14.2083 15.5833 11.9167 17.875 9.16666 17.875C6.41666 17.875 4.12499 15.5833 4.12499 12.8333C4.12499 10.0833 6.41666 7.79167 9.16666 7.79167ZM9.16668 11C9.50719 11 9.8268 11.0941 10.1008 11.2575L8.80001 12.5583C8.61667 12.7417 8.61667 13.0167 8.80001 13.2C8.89167 13.2917 9.07501 13.2917 9.16667 13.2917C9.25834 13.2917 9.44167 13.2917 9.44167 13.2L10.7425 11.8992C10.9059 12.1732 11 12.4928 11 12.8333C11 13.8417 10.175 14.6667 9.16668 14.6667C8.15834 14.6667 7.33334 13.8417 7.33334 12.8333C7.33334 11.825 8.15834 11 9.16668 11Z" fill="#D3C485"/>
</svg>
