<svg width="15" height="10" viewBox="0 0 15 10" fill="none" xmlns="http://www.w3.org/2000/svg">
<path d="M13.912 1.69957C13.8334 1.40918 13.6794 1.14437 13.4653 0.931624C13.2513 0.718882 12.9846 0.565676 12.6922 0.48734C11.6156 0.199951 7.29999 0.199951 7.29999 0.199951C7.29999 0.199951 2.98441 0.199951 1.90783 0.485811C1.61523 0.563894 1.34847 0.717014 1.13436 0.929795C0.920246 1.14258 0.766309 1.40753 0.688007 1.69804C0.399994 2.7681 0.399994 4.99995 0.399994 4.99995C0.399994 4.99995 0.399994 7.2318 0.688007 8.30033C0.846646 8.8904 1.31486 9.35511 1.90783 9.51256C2.98441 9.79995 7.29999 9.79995 7.29999 9.79995C7.29999 9.79995 11.6156 9.79995 12.6922 9.51256C13.2867 9.35511 13.7533 8.8904 13.912 8.30033C14.2 7.2318 14.2 4.99995 14.2 4.99995C14.2 4.99995 14.2 2.7681 13.912 1.69957ZM5.92924 7.04836V2.95154L9.50245 4.98467L5.92924 7.04836Z" fill="#D3C485"/>
</svg>
